<svg id="svg" version="1.1" xmlns="http://www.w3.org/2000/svg" xmlns:xlink="http://www.w3.org/1999/xlink" width="192" height="75" viewBox="0, 0, 400,147.52851711026616"><g id="svgg"><path id="path0" d="M233.596 2.480 C 233.549 2.555,233.527 7.672,233.547 13.850 L 233.583 25.083 243.993 25.121 C 251.441 25.148,254.434 25.106,254.516 24.975 C 254.582 24.867,254.722 24.848,254.853 24.929 C 255.164 25.121,255.667 25.142,255.667 24.962 C 255.667 24.881,255.742 24.860,255.833 24.917 C 255.925 24.973,256.000 24.909,256.000 24.774 C 256.000 24.638,256.094 24.490,256.208 24.444 C 256.362 24.382,256.357 24.356,256.188 24.346 C 255.994 24.335,255.994 24.290,256.188 24.051 C 256.385 23.808,256.382 23.790,256.167 23.917 C 255.962 24.037,255.953 24.019,256.117 23.817 C 256.369 23.504,256.410 3.900,256.158 3.745 C 256.064 3.687,256.058 3.532,256.144 3.365 C 256.329 3.006,255.660 2.298,255.329 2.503 C 255.209 2.577,254.937 2.571,254.725 2.490 C 254.237 2.305,233.710 2.295,233.596 2.480 M186.865 34.605 C 186.745 34.735,186.557 34.791,186.448 34.729 C 186.296 34.644,186.296 34.667,186.445 34.829 C 186.698 35.103,186.393 35.827,186.015 35.849 C 185.869 35.857,185.094 35.872,184.292 35.882 C 183.094 35.897,182.833 35.946,182.831 36.158 C 182.829 36.314,182.779 36.348,182.706 36.244 C 182.638 36.150,182.471 36.075,182.333 36.078 C 182.048 36.084,181.986 36.522,182.244 36.706 C 182.345 36.777,182.295 36.829,182.125 36.831 C 181.958 36.832,181.834 36.958,181.836 37.125 C 181.838 37.352,181.870 37.367,181.982 37.191 C 182.082 37.033,182.160 37.020,182.239 37.149 C 182.362 37.348,182.207 37.383,181.392 37.339 C 180.803 37.307,180.333 37.802,180.333 38.454 C 180.333 38.785,180.243 38.837,179.625 38.862 C 178.516 38.906,178.432 38.919,178.166 39.085 C 177.826 39.297,177.477 39.338,177.592 39.152 C 177.644 39.068,177.601 39.000,177.498 39.000 C 177.394 39.000,177.336 39.131,177.369 39.292 C 177.406 39.473,177.553 39.565,177.756 39.535 C 178.018 39.496,178.035 39.519,177.841 39.649 C 177.708 39.738,177.539 39.774,177.466 39.729 C 177.393 39.684,177.333 39.720,177.333 39.810 C 177.333 39.899,177.427 40.007,177.542 40.049 C 177.656 40.091,177.525 40.178,177.250 40.243 C 176.122 40.508,175.905 40.659,175.863 41.205 C 175.797 42.071,175.667 41.953,175.667 41.028 L 175.667 40.167 174.837 40.167 C 174.068 40.167,173.998 40.201,173.898 40.625 C 173.780 41.124,173.216 41.831,172.929 41.838 C 172.831 41.840,172.604 42.157,172.426 42.543 C 172.248 42.929,171.827 43.545,171.490 43.914 C 171.153 44.282,170.754 44.826,170.603 45.122 C 170.452 45.419,170.105 45.776,169.833 45.917 C 169.544 46.066,169.291 46.362,169.224 46.626 C 169.089 47.167,168.835 47.444,168.283 47.654 C 168.003 47.761,167.842 47.983,167.771 48.363 C 167.702 48.724,167.491 49.033,167.163 49.250 C 166.886 49.433,166.513 49.886,166.332 50.256 C 166.152 50.626,165.666 51.277,165.252 51.703 C 164.839 52.129,164.500 52.585,164.500 52.716 C 164.500 52.848,164.219 53.142,163.875 53.369 C 163.473 53.636,163.190 53.985,163.083 54.350 C 162.967 54.747,162.756 54.987,162.382 55.152 C 162.021 55.311,161.815 55.540,161.744 55.859 C 161.687 56.118,161.396 56.537,161.097 56.790 C 160.798 57.043,160.412 57.494,160.241 57.792 C 160.069 58.090,159.872 58.333,159.804 58.333 C 159.625 58.333,159.024 58.990,158.586 59.667 C 158.378 59.987,157.936 60.528,157.604 60.867 C 157.272 61.206,157.000 61.587,157.000 61.713 C 157.000 61.971,156.390 62.568,155.980 62.712 C 155.831 62.764,155.657 63.019,155.592 63.278 C 155.459 63.814,154.881 64.500,154.562 64.500 C 154.445 64.500,154.274 64.771,154.182 65.103 C 154.091 65.435,153.912 65.828,153.784 65.978 C 152.951 66.953,152.997 64.559,153.001 107.167 L 153.005 146.654 164.378 146.657 C 171.769 146.660,175.662 146.605,175.500 146.500 C 175.362 146.411,175.334 146.337,175.437 146.336 C 175.548 146.334,175.625 146.012,175.627 145.542 C 175.629 145.106,175.639 136.612,175.649 126.667 L 175.666 108.583 176.500 108.641 C 177.270 108.694,177.335 108.732,177.353 109.141 C 177.393 110.061,177.402 110.074,178.075 110.127 C 178.870 110.188,178.809 110.130,178.859 110.871 C 178.882 111.205,178.952 111.447,179.014 111.408 C 179.077 111.369,179.218 111.444,179.327 111.575 C 179.435 111.706,179.622 111.776,179.741 111.731 C 179.860 111.685,180.074 111.764,180.217 111.907 C 180.359 112.050,180.613 112.169,180.780 112.172 C 181.069 112.177,181.070 112.188,180.788 112.402 C 180.509 112.613,180.513 112.631,180.846 112.718 C 181.072 112.777,181.155 112.885,181.074 113.015 C 180.994 113.145,181.018 113.175,181.141 113.099 C 181.247 113.034,181.333 113.064,181.333 113.167 C 181.333 113.270,181.465 113.341,181.625 113.325 C 182.278 113.258,183.548 113.341,183.446 113.443 C 183.386 113.503,183.429 113.668,183.543 113.808 C 183.711 114.016,183.708 114.039,183.525 113.929 C 183.343 113.819,183.336 113.860,183.487 114.143 C 183.590 114.335,183.832 114.577,184.024 114.679 C 184.306 114.831,184.348 114.823,184.238 114.642 C 184.133 114.467,184.157 114.458,184.343 114.598 C 184.475 114.698,184.995 114.799,185.499 114.821 C 186.345 114.859,187.331 115.148,186.660 115.162 C 186.520 115.164,186.392 115.326,186.378 115.520 C 186.352 115.859,186.360 115.860,186.582 115.561 C 186.826 115.232,186.860 115.559,186.621 115.941 C 186.555 116.047,186.619 116.177,186.765 116.233 C 187.168 116.387,187.197 116.362,187.084 115.958 C 187.006 115.682,187.021 115.646,187.142 115.822 C 187.233 115.953,187.444 116.097,187.612 116.141 C 188.337 116.336,202.045 116.337,202.279 116.143 C 202.457 115.995,202.561 115.994,202.707 116.140 C 203.033 116.466,203.500 116.371,203.500 115.980 C 203.500 115.697,203.547 115.665,203.731 115.817 C 203.910 115.966,203.986 115.944,204.073 115.717 C 204.169 115.468,204.208 115.461,204.345 115.671 C 204.459 115.845,204.480 115.758,204.417 115.375 C 204.368 115.077,204.386 114.826,204.456 114.818 C 204.526 114.810,204.846 114.789,205.167 114.772 C 205.487 114.755,205.855 114.675,205.984 114.595 C 206.158 114.486,206.182 114.508,206.077 114.683 C 205.957 114.882,205.978 114.883,206.218 114.688 C 206.373 114.562,206.500 114.515,206.500 114.583 C 206.500 114.652,206.614 114.613,206.754 114.497 C 206.969 114.319,206.990 114.333,206.892 114.589 C 206.799 114.829,206.836 114.868,207.068 114.779 C 207.229 114.717,207.396 114.667,207.440 114.667 C 207.484 114.667,207.473 114.592,207.417 114.500 C 207.360 114.408,207.393 114.333,207.490 114.333 C 207.587 114.333,207.667 114.254,207.667 114.157 C 207.667 114.060,207.597 114.023,207.512 114.076 C 207.426 114.129,207.302 114.084,207.236 113.977 C 207.163 113.860,207.187 113.826,207.296 113.894 C 207.396 113.955,207.524 113.929,207.582 113.836 C 207.639 113.743,207.551 113.664,207.385 113.662 C 206.881 113.653,207.523 113.350,208.144 113.302 C 208.438 113.280,208.667 113.169,208.667 113.048 C 208.667 112.930,208.763 112.833,208.880 112.833 C 208.998 112.833,209.111 112.631,209.131 112.384 C 209.176 111.841,209.345 111.720,210.000 111.765 C 210.275 111.785,210.500 111.733,210.500 111.650 C 210.500 111.568,210.631 111.501,210.792 111.503 C 211.041 111.505,211.047 111.529,210.833 111.667 C 210.611 111.810,210.612 111.829,210.835 111.831 C 210.973 111.832,211.180 111.683,211.295 111.500 C 211.409 111.317,211.629 111.167,211.783 111.167 C 212.027 111.167,212.021 111.134,211.740 110.922 C 211.425 110.683,211.426 110.677,211.792 110.672 C 212.012 110.669,212.167 110.563,212.167 110.417 C 212.167 110.279,212.317 110.157,212.500 110.146 C 213.051 110.111,213.096 110.094,213.385 109.805 C 213.591 109.600,213.609 109.505,213.457 109.443 C 213.293 109.377,213.293 109.357,213.458 109.346 C 213.573 109.339,213.667 109.183,213.667 109.000 C 213.667 108.785,213.785 108.659,214.000 108.646 C 214.183 108.634,214.496 108.616,214.695 108.604 C 214.990 108.587,215.065 108.465,215.109 107.933 C 215.174 107.139,215.140 107.174,215.920 107.110 C 216.543 107.059,216.560 107.040,216.616 106.341 C 216.675 105.600,216.973 104.832,217.007 105.333 C 217.018 105.504,217.070 105.478,217.169 105.250 C 217.310 104.926,217.317 104.927,217.426 105.292 C 217.550 105.702,217.748 105.774,217.933 105.474 C 218.006 105.355,217.978 105.327,217.859 105.401 C 217.736 105.477,217.667 105.388,217.667 105.156 C 217.667 104.849,217.706 104.825,217.920 105.003 C 218.133 105.179,218.157 105.169,218.069 104.940 C 218.011 104.788,218.046 104.667,218.149 104.667 C 218.250 104.667,218.332 104.535,218.331 104.375 C 218.329 104.126,218.305 104.120,218.167 104.333 C 218.029 104.547,218.005 104.541,218.003 104.292 C 218.001 104.131,218.094 103.999,218.208 103.997 C 218.347 103.996,218.333 103.941,218.167 103.833 C 217.972 103.707,217.967 103.671,218.144 103.669 C 218.299 103.667,218.346 103.529,218.290 103.237 C 218.203 102.781,218.617 102.485,219.193 102.591 C 219.524 102.652,219.915 101.829,219.787 101.341 C 219.663 100.868,220.084 100.559,220.449 100.855 C 220.692 101.052,220.710 101.049,220.583 100.833 C 220.461 100.626,220.479 100.618,220.692 100.790 C 221.024 101.059,221.225 100.857,220.957 100.525 C 220.785 100.313,220.792 100.294,221.000 100.417 C 221.213 100.542,221.217 100.523,221.030 100.293 C 220.849 100.069,220.848 99.954,221.028 99.636 C 221.148 99.424,221.252 99.023,221.261 98.745 C 221.275 98.260,221.651 97.365,221.662 97.792 C 221.664 97.906,221.746 98.000,221.843 98.000 C 221.940 98.000,221.966 97.913,221.901 97.808 C 221.819 97.676,221.856 97.661,222.016 97.761 C 222.502 98.064,223.172 97.656,222.696 97.347 C 222.614 97.293,222.586 97.100,222.633 96.917 C 222.712 96.610,222.783 95.495,222.819 93.974 C 222.831 93.447,222.879 93.376,223.171 93.453 C 223.828 93.625,224.288 92.802,224.297 91.442 C 224.312 89.233,224.333 89.000,224.512 89.000 C 224.759 89.000,225.174 88.563,225.048 88.437 C 224.991 88.380,225.116 88.333,225.326 88.333 C 225.665 88.333,225.682 88.366,225.479 88.625 C 225.271 88.889,225.277 88.895,225.542 88.688 C 225.930 88.383,225.909 88.230,225.458 88.085 C 225.117 87.975,225.111 87.957,225.399 87.882 C 225.653 87.816,225.669 87.771,225.483 87.652 C 225.295 87.533,225.304 87.505,225.533 87.503 C 225.977 87.499,225.986 63.169,225.541 63.161 C 225.270 63.156,225.271 63.140,225.554 62.926 C 225.847 62.703,225.847 62.693,225.554 62.617 C 225.278 62.546,225.276 62.537,225.542 62.519 C 225.894 62.496,225.918 62.278,225.598 62.012 C 225.418 61.863,225.334 61.864,225.239 62.018 C 225.163 62.140,225.185 62.175,225.296 62.106 C 225.396 62.045,225.524 62.071,225.582 62.164 C 225.640 62.259,225.528 62.333,225.328 62.333 C 225.109 62.333,224.935 62.203,224.882 62.000 C 224.834 61.817,224.691 61.667,224.564 61.667 C 224.402 61.667,224.330 61.432,224.321 60.875 C 224.270 57.417,224.202 57.167,223.313 57.167 C 222.786 57.167,222.830 57.370,222.799 54.792 C 222.794 54.402,222.729 54.006,222.655 53.911 C 222.580 53.816,222.582 53.637,222.659 53.513 C 222.868 53.174,222.168 52.501,221.802 52.689 C 221.431 52.880,221.370 52.751,221.321 51.664 C 221.298 51.161,221.198 50.642,221.098 50.510 C 220.958 50.324,220.967 50.300,221.142 50.405 C 221.324 50.515,221.331 50.473,221.175 50.182 C 221.061 49.969,220.902 49.873,220.783 49.944 C 220.673 50.010,220.696 49.925,220.833 49.755 C 221.069 49.463,221.061 49.457,220.688 49.656 C 220.403 49.808,220.327 49.812,220.415 49.670 C 220.498 49.535,220.412 49.490,220.143 49.528 C 219.786 49.578,219.753 49.528,219.787 48.965 C 219.808 48.626,219.752 48.303,219.662 48.247 C 219.573 48.192,219.501 48.020,219.503 47.865 C 219.505 47.622,219.527 47.618,219.667 47.833 C 219.805 48.047,219.829 48.041,219.831 47.792 C 219.832 47.631,219.750 47.500,219.649 47.500 C 219.546 47.500,219.511 47.379,219.569 47.226 C 219.657 46.998,219.633 46.987,219.420 47.164 C 219.206 47.341,219.167 47.317,219.167 47.011 C 219.167 46.778,219.236 46.690,219.359 46.766 C 219.478 46.840,219.506 46.812,219.433 46.692 C 219.248 46.394,219.050 46.464,218.918 46.875 C 218.809 47.217,218.791 47.222,218.715 46.934 C 218.649 46.680,218.604 46.664,218.486 46.851 C 218.376 47.024,218.331 46.977,218.310 46.667 C 218.261 45.925,218.248 45.859,218.124 45.735 C 218.058 45.669,218.086 45.513,218.189 45.390 C 218.409 45.125,218.435 45.137,217.541 45.092 C 216.675 45.047,216.640 45.014,216.609 44.220 C 216.584 43.603,216.564 43.583,215.947 43.558 C 215.162 43.527,215.140 43.505,215.109 42.720 C 215.095 42.370,215.017 42.108,214.935 42.139 C 214.854 42.170,214.723 42.095,214.644 41.973 C 214.526 41.790,214.470 41.795,214.336 42.000 C 214.226 42.167,214.171 42.181,214.169 42.042 C 214.168 41.927,214.054 41.833,213.917 41.833 C 213.683 41.833,213.587 41.623,213.657 41.261 C 213.735 40.856,213.476 40.269,213.324 40.509 C 213.240 40.641,213.171 40.668,213.169 40.567 C 213.168 40.466,212.943 40.378,212.669 40.370 C 211.996 40.351,211.794 40.207,211.980 39.875 C 212.080 39.695,212.053 39.529,211.897 39.373 C 211.769 39.245,211.694 39.090,211.732 39.028 C 211.770 38.967,211.240 38.905,210.555 38.891 C 209.158 38.862,209.131 38.850,209.074 38.210 C 209.052 37.957,209.026 37.689,209.017 37.615 C 209.007 37.541,208.925 37.527,208.833 37.583 C 208.742 37.640,208.667 37.607,208.667 37.510 C 208.667 37.413,208.610 37.342,208.542 37.353 C 208.115 37.420,207.667 37.303,207.667 37.123 C 207.667 37.008,207.517 36.820,207.333 36.705 C 207.150 36.591,207.000 36.371,207.000 36.217 C 207.000 35.973,206.968 35.979,206.755 36.260 C 206.517 36.575,206.510 36.574,206.505 36.208 C 206.499 35.781,206.445 35.762,205.969 36.017 C 205.749 36.134,205.665 36.138,205.733 36.027 C 205.804 35.913,205.384 35.858,204.496 35.865 C 202.984 35.877,203.042 35.897,202.964 35.313 C 202.893 34.784,202.402 34.234,202.277 34.543 C 202.213 34.700,202.190 34.701,202.180 34.548 C 202.160 34.246,187.334 34.237,187.331 34.539 C 187.329 34.690,187.294 34.696,187.206 34.560 C 187.117 34.423,187.023 34.435,186.865 34.605 M305.532 34.595 C 305.412 34.730,305.224 34.791,305.115 34.729 C 304.963 34.644,304.962 34.667,305.112 34.829 C 305.366 35.104,305.059 35.828,304.682 35.845 C 304.536 35.851,303.760 35.863,302.958 35.870 C 301.853 35.881,301.500 35.938,301.500 36.109 C 301.500 36.375,301.232 36.407,301.078 36.159 C 301.004 36.039,300.896 36.046,300.735 36.179 C 300.419 36.441,300.439 36.626,300.792 36.718 C 301.044 36.784,301.040 36.797,300.760 36.814 C 300.440 36.833,300.440 36.836,300.760 37.078 C 301.079 37.319,300.547 37.455,299.708 37.346 C 299.594 37.331,299.500 37.401,299.500 37.503 C 299.500 37.604,299.427 37.641,299.338 37.586 C 299.188 37.493,299.087 37.761,298.962 38.583 C 298.918 38.875,298.793 38.914,297.956 38.894 C 297.430 38.881,297.000 38.942,297.000 39.029 C 297.000 39.115,297.075 39.140,297.167 39.083 C 297.258 39.027,297.333 39.020,297.333 39.068 C 297.333 39.289,296.682 39.494,296.568 39.308 C 296.487 39.178,296.525 39.159,296.683 39.251 C 296.821 39.331,296.860 39.325,296.778 39.235 C 296.590 39.030,296.277 39.034,296.128 39.244 C 295.935 39.515,295.979 39.697,296.208 39.581 C 296.323 39.523,296.285 39.583,296.125 39.714 C 295.965 39.846,295.833 40.072,295.833 40.217 C 295.833 40.558,295.626 40.681,295.344 40.506 C 295.012 40.302,294.335 41.001,294.519 41.357 C 294.710 41.729,294.394 41.935,293.653 41.922 C 293.324 41.916,293.042 41.988,293.025 42.081 C 293.008 42.174,292.974 42.512,292.949 42.832 C 292.908 43.363,292.850 43.422,292.284 43.514 C 291.452 43.649,291.421 43.692,291.347 44.792 C 291.340 44.906,291.152 45.000,290.930 45.000 C 290.385 45.000,289.982 45.169,290.094 45.351 C 290.145 45.433,290.104 45.500,290.003 45.500 C 289.901 45.500,289.831 45.594,289.846 45.708 C 289.923 46.303,289.816 46.500,289.417 46.500 C 288.889 46.500,288.379 47.003,288.287 47.613 C 288.225 48.030,288.079 36.845,288.137 36.130 C 288.161 35.843,266.048 35.729,265.763 36.015 C 265.633 36.145,265.631 114.520,265.761 114.650 C 265.975 114.864,288.180 114.834,288.153 114.620 C 287.944 112.981,288.209 64.667,288.427 64.667 C 288.569 64.667,288.646 64.602,288.597 64.522 C 288.548 64.442,288.637 64.378,288.795 64.378 C 289.408 64.380,289.666 64.329,289.647 64.208 C 289.558 63.645,289.700 63.165,289.958 63.155 C 290.223 63.144,290.222 63.132,289.943 63.022 C 289.666 62.913,289.678 62.882,290.062 62.707 C 290.374 62.564,290.519 62.562,290.603 62.699 C 290.679 62.821,290.638 62.839,290.484 62.751 C 290.294 62.643,290.289 62.660,290.460 62.843 C 290.777 63.185,291.315 62.629,291.016 62.269 C 290.861 62.083,290.856 61.935,290.996 61.674 C 291.098 61.483,291.137 61.253,291.081 61.163 C 291.026 61.073,291.060 61.000,291.157 61.000 C 291.254 61.000,291.333 60.775,291.333 60.500 C 291.333 60.014,291.660 59.884,292.671 59.968 C 292.719 59.972,292.755 59.675,292.750 59.308 C 292.739 58.529,292.739 58.529,293.606 58.478 C 294.267 58.439,294.271 58.434,294.265 57.761 L 294.260 57.083 294.964 57.032 C 295.441 56.997,295.667 56.904,295.667 56.740 C 295.667 56.410,295.986 56.437,296.118 56.779 C 296.214 57.030,296.238 57.025,296.351 56.738 C 296.461 56.457,296.478 56.453,296.488 56.708 C 296.502 57.060,296.722 57.085,296.988 56.765 C 297.121 56.604,297.128 56.496,297.008 56.422 C 296.742 56.257,296.800 56.000,297.103 56.000 C 297.294 56.000,297.346 55.899,297.281 55.650 C 297.230 55.458,297.232 55.343,297.283 55.394 C 297.335 55.446,297.526 55.408,297.709 55.311 C 297.973 55.169,298.013 55.179,297.905 55.358 C 297.807 55.521,297.858 55.514,298.092 55.333 C 298.742 54.830,298.867 54.648,298.783 54.327 C 298.686 53.955,298.705 53.951,300.125 53.979 C 301.299 54.002,301.833 53.670,301.833 52.917 C 301.833 52.501,301.839 52.500,303.417 52.500 C 304.491 52.500,305.000 52.561,305.000 52.690 C 305.000 52.794,305.131 52.987,305.292 53.119 C 305.452 53.250,305.496 53.315,305.390 53.262 C 305.171 53.153,305.189 53.585,305.411 53.787 C 305.489 53.858,305.499 53.823,305.434 53.708 C 305.368 53.594,305.387 53.500,305.476 53.500 C 305.566 53.500,305.677 53.594,305.723 53.708 C 305.790 53.875,305.810 53.875,305.820 53.708 C 305.839 53.410,306.167 53.450,306.167 53.750 C 306.167 54.048,306.246 54.058,306.698 53.817 C 306.947 53.683,307.009 53.683,306.927 53.817 C 306.852 53.938,307.034 54.000,307.467 54.000 C 308.075 54.000,308.117 54.031,308.072 54.441 C 308.010 55.008,308.410 55.401,309.065 55.416 C 309.566 55.427,309.585 55.455,309.636 56.252 C 309.665 56.706,309.777 57.133,309.886 57.203 C 310.012 57.283,310.018 57.329,309.903 57.331 C 309.803 57.332,309.722 57.446,309.722 57.583 C 309.722 57.721,309.794 57.833,309.882 57.833 C 309.969 57.833,309.953 57.939,309.846 58.068 C 309.698 58.247,309.697 58.333,309.844 58.423 C 309.950 58.489,310.103 58.439,310.183 58.313 C 310.306 58.119,310.329 58.119,310.331 58.312 C 310.333 58.501,310.379 58.503,310.596 58.323 C 311.143 57.868,311.162 58.729,311.180 86.000 C 311.191 101.079,311.202 113.660,311.205 113.958 C 311.209 114.368,311.283 114.500,311.512 114.500 C 311.678 114.500,311.857 114.571,311.911 114.657 C 311.970 114.753,316.217 114.802,322.879 114.782 L 333.750 114.750 333.792 89.708 C 333.838 62.471,333.769 64.543,334.625 64.654 C 334.740 64.669,334.834 64.584,334.836 64.466 C 334.838 64.307,334.879 64.314,334.991 64.491 C 335.142 64.731,335.402 64.144,335.324 63.739 C 335.255 63.382,335.355 63.210,335.730 63.040 C 335.984 62.924,336.183 62.917,336.287 63.020 C 336.390 63.123,336.511 63.104,336.626 62.965 C 336.822 62.729,336.833 62.683,336.833 62.103 C 336.833 61.706,337.183 61.490,337.903 61.439 C 338.149 61.422,338.235 61.268,338.276 60.766 C 338.341 59.972,338.305 60.008,339.099 59.942 C 339.601 59.901,339.755 59.816,339.772 59.570 C 339.837 58.649,340.190 58.346,341.042 58.480 C 341.110 58.491,341.167 58.383,341.167 58.240 C 341.167 58.081,341.247 58.026,341.375 58.098 C 341.536 58.189,341.538 58.167,341.388 58.004 C 341.015 57.601,341.458 57.044,342.246 56.926 C 342.884 56.830,342.948 56.778,342.906 56.391 C 342.839 55.786,342.984 55.500,343.357 55.500 C 343.534 55.500,343.867 55.376,344.098 55.225 C 344.440 55.001,344.554 54.990,344.717 55.166 C 344.876 55.339,344.856 55.361,344.616 55.276 C 344.438 55.213,344.357 55.237,344.418 55.335 C 344.587 55.609,345.000 55.520,345.003 55.208 C 345.004 55.039,345.056 54.989,345.128 55.089 C 345.195 55.184,345.363 55.259,345.500 55.256 C 345.786 55.249,345.847 54.811,345.589 54.628 C 345.489 54.556,345.539 54.504,345.708 54.503 C 345.869 54.501,346.000 54.387,346.000 54.250 C 346.000 53.996,346.405 53.949,348.612 53.948 C 349.310 53.947,349.490 53.888,349.555 53.640 C 349.599 53.471,349.722 53.333,349.828 53.333 C 349.933 53.333,349.978 53.401,349.926 53.484 C 349.875 53.568,349.983 53.596,350.166 53.548 C 350.350 53.500,350.500 53.390,350.500 53.304 C 350.500 53.218,350.406 53.203,350.292 53.272 C 350.150 53.357,350.157 53.307,350.312 53.115 C 350.473 52.916,350.483 52.833,350.344 52.833 C 350.236 52.833,350.193 52.758,350.250 52.667 C 350.307 52.575,350.474 52.500,350.621 52.500 C 350.768 52.500,350.840 52.549,350.779 52.610 C 350.719 52.670,350.763 52.834,350.876 52.975 C 351.040 53.177,351.040 53.205,350.877 53.107 C 350.736 53.022,350.702 53.066,350.772 53.246 C 350.942 53.689,351.533 53.899,352.667 53.918 C 353.618 53.934,353.751 53.975,353.759 54.260 C 353.765 54.438,353.856 54.742,353.962 54.936 C 354.068 55.131,354.101 55.347,354.036 55.417 C 353.970 55.488,354.094 55.453,354.312 55.339 C 354.628 55.175,354.681 55.175,354.577 55.343 C 354.483 55.495,354.547 55.527,354.807 55.459 C 355.161 55.366,355.268 55.607,355.179 56.292 C 355.164 56.406,355.230 56.500,355.326 56.500 C 355.422 56.500,355.500 56.621,355.500 56.769 C 355.500 56.965,355.611 57.018,355.906 56.961 C 356.660 56.817,356.709 56.977,356.695 59.481 C 356.687 60.775,356.745 61.833,356.823 61.833 C 356.901 61.833,356.954 62.021,356.941 62.250 C 356.927 62.479,356.866 62.666,356.804 62.667 C 356.741 62.667,356.704 62.966,356.720 63.333 C 356.737 63.699,356.811 63.999,356.885 64.000 C 356.959 64.000,356.973 64.075,356.917 64.167 C 356.860 64.258,356.924 64.333,357.060 64.333 C 357.195 64.333,357.343 64.427,357.390 64.542 C 357.452 64.696,357.477 64.690,357.487 64.521 C 357.498 64.327,357.543 64.327,357.782 64.521 C 358.025 64.719,358.044 64.716,357.917 64.500 C 357.790 64.284,357.808 64.281,358.051 64.479 C 358.314 64.692,358.333 66.430,358.333 89.767 L 358.333 114.826 368.875 114.788 L 379.417 114.750 379.452 82.208 C 379.476 60.172,379.432 49.667,379.317 49.667 C 379.224 49.667,379.193 49.592,379.250 49.501 C 379.490 49.112,379.464 48.630,379.186 48.353 C 378.863 48.029,378.333 47.951,378.333 48.228 C 378.333 48.344,378.276 48.343,378.158 48.224 C 378.061 48.128,377.974 47.382,377.964 46.566 C 377.945 44.972,377.883 44.616,377.649 44.761 C 377.567 44.812,377.500 44.774,377.500 44.677 C 377.500 44.579,377.584 44.500,377.687 44.500 C 377.815 44.500,377.808 44.420,377.664 44.246 C 377.487 44.034,377.498 44.010,377.726 44.097 C 378.032 44.215,378.076 44.043,377.836 43.667 C 377.701 43.455,377.622 43.451,377.321 43.637 C 377.026 43.820,376.988 43.820,377.098 43.637 C 377.206 43.457,377.183 43.455,376.968 43.629 C 376.658 43.881,376.474 43.578,376.436 42.750 C 376.423 42.475,376.314 42.076,376.195 41.864 C 376.036 41.584,376.026 41.419,376.158 41.260 C 376.535 40.807,375.944 40.308,375.546 40.744 C 375.475 40.823,375.522 40.826,375.651 40.751 C 375.808 40.659,375.846 40.678,375.766 40.808 C 375.651 40.994,375.000 40.789,375.000 40.568 C 375.000 40.520,375.075 40.527,375.167 40.583 C 375.258 40.640,375.333 40.607,375.333 40.510 C 375.333 40.413,375.221 40.333,375.083 40.333 C 374.867 40.333,374.732 39.810,374.814 39.292 C 374.833 39.171,374.575 39.120,373.962 39.122 C 373.804 39.122,373.714 39.058,373.764 38.978 C 373.813 38.898,373.736 38.833,373.593 38.833 C 373.433 38.833,373.333 38.686,373.333 38.449 C 373.333 37.903,372.965 37.469,372.456 37.413 C 371.886 37.350,371.663 37.204,371.757 36.953 C 371.799 36.841,371.684 36.525,371.501 36.250 C 371.318 35.975,371.168 35.859,371.168 35.992 C 371.167 36.174,371.120 36.186,370.974 36.041 C 370.837 35.903,370.689 35.899,370.454 36.024 C 370.209 36.156,370.157 36.150,370.249 36.002 C 370.331 35.869,370.243 35.815,369.977 35.837 C 369.061 35.914,368.631 35.834,368.719 35.604 C 368.768 35.477,368.723 35.290,368.620 35.187 C 368.482 35.049,368.496 35.000,368.675 34.999 C 368.808 34.998,368.694 34.851,368.422 34.671 C 367.947 34.359,367.581 34.345,359.712 34.336 C 350.610 34.327,350.690 34.321,350.766 34.973 C 350.849 35.689,350.671 35.785,349.083 35.887 C 348.258 35.940,347.433 36.014,347.250 36.051 C 347.067 36.089,346.869 36.046,346.812 35.957 C 346.743 35.852,346.604 35.852,346.415 35.958 C 346.209 36.073,346.181 36.156,346.320 36.242 C 346.468 36.333,346.463 36.427,346.300 36.625 C 346.132 36.828,346.129 36.903,346.287 36.956 C 346.684 37.090,346.135 37.421,345.560 37.394 C 345.236 37.379,344.999 37.448,344.997 37.559 C 344.996 37.679,344.942 37.667,344.854 37.528 C 344.747 37.358,344.691 37.389,344.622 37.653 C 344.572 37.844,344.599 37.958,344.682 37.907 C 344.765 37.856,344.833 37.893,344.833 37.990 C 344.833 38.087,344.754 38.167,344.657 38.167 C 344.560 38.167,344.517 38.226,344.563 38.300 C 344.754 38.610,344.333 38.846,343.529 38.880 C 343.055 38.900,342.667 38.977,342.667 39.052 C 342.667 39.126,342.760 39.133,342.875 39.069 C 343.038 38.976,343.040 38.998,342.882 39.168 C 342.717 39.347,342.629 39.344,342.392 39.151 C 342.140 38.947,342.122 38.949,342.250 39.167 C 342.372 39.374,342.354 39.382,342.142 39.210 C 341.827 38.955,341.601 39.136,341.854 39.441 C 341.992 39.608,341.971 39.688,341.769 39.766 C 341.621 39.823,341.500 40.007,341.500 40.175 C 341.500 40.555,341.304 40.688,341.010 40.506 C 340.679 40.302,340.001 41.001,340.185 41.357 C 340.376 41.729,340.048 41.961,339.384 41.923 C 339.090 41.906,338.885 41.948,338.927 42.016 C 338.969 42.084,338.885 42.258,338.740 42.403 C 338.571 42.571,338.548 42.667,338.675 42.667 C 338.818 42.667,338.809 42.747,338.645 42.949 C 338.448 43.192,338.451 43.211,338.667 43.092 C 338.889 42.968,338.889 42.982,338.667 43.217 C 338.529 43.362,338.221 43.506,337.983 43.537 C 337.453 43.606,336.899 44.098,337.210 44.223 C 337.373 44.290,337.373 44.310,337.208 44.320 C 337.094 44.327,337.000 44.483,337.000 44.667 C 337.000 44.882,336.882 45.007,336.667 45.021 C 336.483 45.032,336.165 45.051,335.958 45.063 C 335.694 45.077,335.577 45.194,335.563 45.458 C 335.551 45.665,335.532 45.983,335.521 46.167 C 335.508 46.377,335.382 46.500,335.181 46.500 C 335.005 46.500,334.823 46.594,334.777 46.708 C 334.713 46.867,334.690 46.864,334.680 46.696 C 334.657 46.319,334.100 47.001,334.037 47.483 C 334.006 47.721,333.862 48.029,333.717 48.167 C 333.482 48.389,333.468 48.389,333.592 48.167 C 333.711 47.951,333.692 47.948,333.449 48.145 C 333.210 48.339,333.166 48.339,333.164 48.145 C 333.163 48.008,333.113 47.983,333.039 48.083 C 332.972 48.175,332.798 48.343,332.653 48.456 C 332.344 48.696,332.369 48.807,332.293 46.858 C 332.235 45.355,332.029 45.000,331.218 45.000 C 330.967 45.000,330.830 44.899,330.823 44.708 C 330.817 44.548,330.797 43.950,330.778 43.380 C 330.742 42.245,330.443 41.832,329.715 41.912 C 329.356 41.952,329.196 41.501,329.316 40.785 C 329.328 40.712,329.267 40.521,329.181 40.359 C 329.094 40.198,329.085 39.965,329.161 39.843 C 329.365 39.512,328.665 38.835,328.309 39.019 C 327.978 39.189,327.699 38.894,327.742 38.417 C 327.758 38.233,327.598 37.912,327.386 37.702 C 327.174 37.493,327.000 37.408,327.000 37.515 C 327.000 37.647,326.911 37.635,326.718 37.479 C 326.477 37.283,326.457 37.285,326.579 37.487 C 326.664 37.628,326.549 37.594,326.295 37.403 C 326.033 37.206,325.938 37.040,326.049 36.971 C 326.174 36.893,326.167 36.784,326.023 36.611 C 325.866 36.422,325.864 36.334,326.013 36.242 C 326.152 36.156,326.124 36.073,325.918 35.958 C 325.729 35.852,325.590 35.852,325.522 35.957 C 325.464 36.046,325.267 36.094,325.083 36.062 C 324.900 36.030,324.417 35.961,324.010 35.909 C 323.105 35.792,322.988 35.726,323.112 35.403 C 323.166 35.261,323.042 34.972,322.829 34.745 L 322.448 34.340 314.099 34.345 C 306.962 34.349,305.718 34.386,305.532 34.595 M386.231 34.507 C 385.836 34.655,385.600 35.275,385.893 35.396 C 386.018 35.447,386.009 35.478,385.865 35.487 C 385.745 35.494,385.693 35.575,385.750 35.667 C 385.811 35.766,385.610 35.833,385.250 35.833 C 384.832 35.833,384.684 35.893,384.768 36.028 C 384.848 36.158,384.798 36.189,384.619 36.120 C 384.367 36.023,384.114 36.400,384.181 36.774 C 384.271 37.279,384.142 37.468,383.737 37.423 C 383.490 37.396,383.269 37.473,383.219 37.604 C 383.171 37.729,383.065 37.790,382.984 37.740 C 382.903 37.690,382.882 37.766,382.936 37.908 C 382.991 38.050,382.965 38.167,382.880 38.167 C 382.794 38.167,382.724 38.298,382.725 38.458 C 382.732 40.023,382.667 40.280,382.208 40.503 C 381.731 40.735,381.611 40.778,381.333 40.813 C 381.131 40.838,381.186 41.203,381.417 41.372 C 381.520 41.448,381.504 41.496,381.375 41.497 C 381.260 41.499,381.167 41.579,381.167 41.677 C 381.167 41.774,381.242 41.807,381.333 41.750 C 381.440 41.684,381.500 42.248,381.500 43.323 C 381.500 44.405,381.437 45.000,381.321 45.000 C 381.223 45.000,381.261 45.119,381.406 45.263 C 381.638 45.495,381.632 45.833,381.397 45.833 C 381.351 45.833,381.367 45.747,381.433 45.641 C 381.508 45.519,381.478 45.494,381.351 45.572 C 381.196 45.668,381.198 45.754,381.361 45.950 C 381.494 46.110,381.594 46.136,381.632 46.020 C 381.671 45.902,381.786 45.929,381.952 46.094 C 382.094 46.236,382.312 46.313,382.438 46.265 C 382.643 46.186,382.766 47.326,382.711 48.792 C 382.707 48.906,382.789 49.001,382.894 49.003 C 382.998 49.004,382.971 49.078,382.833 49.167 C 382.592 49.323,382.924 49.431,383.391 49.348 C 383.468 49.334,383.496 49.419,383.453 49.536 C 383.410 49.654,383.287 49.730,383.180 49.706 C 383.036 49.673,383.032 49.749,383.165 49.998 C 383.380 50.399,383.532 50.445,383.386 50.064 C 383.297 49.832,383.335 49.822,383.654 49.993 C 383.995 50.176,384.011 50.165,383.849 49.863 C 383.713 49.608,383.729 49.512,383.920 49.439 C 384.094 49.372,384.174 49.465,384.192 49.755 C 384.205 49.982,384.224 50.260,384.233 50.375 C 384.242 50.490,384.363 50.677,384.500 50.792 C 384.717 50.973,384.711 50.987,384.458 50.899 C 384.248 50.826,384.167 50.884,384.169 51.107 C 384.171 51.368,384.197 51.377,384.333 51.167 C 384.422 51.029,384.496 50.982,384.497 51.062 C 384.499 51.142,384.613 51.114,384.750 51.000 C 385.046 50.754,385.089 51.011,384.800 51.300 C 384.644 51.456,384.647 51.546,384.810 51.708 C 384.978 51.875,384.995 51.851,384.895 51.583 C 384.784 51.286,384.801 51.275,385.056 51.482 C 385.213 51.610,385.390 51.666,385.448 51.607 C 385.507 51.548,385.468 51.500,385.361 51.500 C 385.254 51.500,385.167 51.362,385.167 51.194 C 385.167 51.026,385.279 50.889,385.417 50.889 C 385.595 50.889,385.667 51.071,385.667 51.528 C 385.667 51.879,385.746 52.167,385.843 52.167 C 385.940 52.167,385.966 52.073,385.900 51.958 C 385.830 51.837,385.843 51.808,385.932 51.889 C 386.015 51.965,386.083 52.115,386.083 52.221 C 386.083 52.338,386.414 52.427,386.917 52.445 C 387.375 52.463,387.787 52.490,387.833 52.507 C 387.879 52.523,388.078 52.524,388.276 52.509 C 388.706 52.475,388.945 52.789,388.685 53.048 C 388.566 53.167,388.500 53.172,388.500 53.061 C 388.500 52.966,388.378 52.889,388.228 52.889 C 387.990 52.889,387.994 52.917,388.256 53.108 C 388.465 53.261,388.619 53.276,388.763 53.156 C 388.906 53.037,389.004 53.039,389.079 53.160 C 389.215 53.380,388.755 53.570,388.408 53.436 C 388.260 53.379,388.193 53.407,388.251 53.502 C 388.307 53.593,388.461 53.667,388.593 53.667 C 388.725 53.667,388.833 53.742,388.833 53.833 C 388.833 53.925,388.916 54.000,389.018 54.000 C 389.119 54.000,389.158 53.884,389.103 53.741 C 389.048 53.599,389.072 53.525,389.154 53.576 C 389.237 53.627,389.347 53.575,389.398 53.459 C 389.449 53.344,389.474 53.400,389.453 53.583 C 389.425 53.840,389.493 53.898,389.750 53.834 C 389.933 53.788,390.833 53.750,391.750 53.750 C 393.210 53.750,393.452 53.709,393.703 53.417 C 393.860 53.233,393.991 53.162,393.994 53.258 C 393.998 53.355,393.911 53.522,393.803 53.630 C 393.653 53.780,393.733 53.779,394.135 53.628 C 394.544 53.473,394.607 53.397,394.415 53.289 C 394.278 53.213,394.167 53.037,394.167 52.899 C 394.167 52.760,394.234 52.688,394.316 52.739 C 394.398 52.790,394.502 52.735,394.547 52.617 C 394.604 52.471,394.966 52.408,395.690 52.420 C 396.564 52.434,396.804 52.377,397.056 52.094 C 397.225 51.905,397.314 51.844,397.255 51.958 C 397.195 52.073,397.225 52.167,397.320 52.167 C 397.534 52.167,397.738 51.417,397.589 51.176 C 397.529 51.079,397.579 50.994,397.698 50.986 C 398.665 50.926,398.872 50.875,399.011 50.661 C 399.098 50.526,399.160 50.267,399.149 50.083 C 399.111 49.436,399.171 49.333,399.583 49.333 L 400.000 49.333 400.000 43.583 L 400.000 37.833 399.583 37.833 C 399.253 37.833,399.167 37.749,399.167 37.427 C 399.167 37.203,399.094 36.975,399.005 36.920 C 398.917 36.865,398.888 36.580,398.942 36.285 C 399.038 35.765,399.032 35.760,398.758 36.083 C 398.602 36.267,398.531 36.310,398.598 36.180 C 398.688 36.007,398.647 35.972,398.444 36.050 C 398.291 36.108,398.167 36.092,398.167 36.013 C 398.167 35.935,398.073 35.874,397.958 35.878 C 397.334 35.901,396.992 35.815,397.088 35.659 C 397.147 35.564,397.095 35.362,396.973 35.211 C 396.782 34.976,396.786 34.958,397.000 35.083 C 397.215 35.210,397.218 35.191,397.024 34.952 C 396.853 34.741,396.722 34.714,396.482 34.843 C 396.275 34.954,396.167 34.955,396.167 34.846 C 396.167 34.457,394.691 34.318,390.827 34.344 C 387.974 34.364,386.833 34.425,386.831 34.561 C 386.829 34.700,386.796 34.701,386.706 34.563 C 386.630 34.447,386.448 34.426,386.231 34.507 M153.013 45.375 C 153.004 50.669,153.053 55.006,153.123 55.012 C 154.333 55.129,154.500 55.116,154.500 54.907 C 154.500 54.782,154.840 54.481,155.256 54.238 C 155.671 53.994,156.125 53.575,156.264 53.307 C 156.402 53.039,156.702 52.734,156.929 52.631 C 157.156 52.527,157.493 52.198,157.678 51.899 C 157.862 51.600,158.217 51.265,158.465 51.155 C 158.714 51.045,159.034 50.726,159.177 50.446 C 159.320 50.166,159.666 49.820,159.946 49.677 C 160.226 49.534,160.548 49.209,160.660 48.955 C 160.773 48.700,161.081 48.380,161.346 48.243 C 161.633 48.095,162.080 47.556,162.450 46.914 C 162.791 46.319,163.131 45.833,163.205 45.833 C 163.279 45.833,163.601 45.552,163.921 45.208 C 164.564 44.517,164.516 44.566,165.333 43.761 C 165.654 43.445,165.992 43.105,166.083 43.006 C 166.175 42.907,167.461 41.630,168.942 40.167 L 171.634 37.508 171.692 36.664 L 171.750 35.820 162.754 35.841 C 157.747 35.853,153.632 35.929,153.476 36.013 C 153.286 36.115,153.167 36.096,153.113 35.957 C 153.068 35.843,153.023 40.081,153.013 45.375 M233.612 35.943 C 233.551 36.005,233.499 55.149,233.497 78.486 C 233.496 105.592,233.437 121.007,233.333 121.167 C 233.237 121.316,233.171 121.337,233.169 121.219 C 233.168 121.110,233.035 121.032,232.875 121.046 C 232.536 121.075,231.893 121.667,232.200 121.667 C 232.351 121.667,232.353 121.714,232.208 121.859 C 232.076 121.991,232.067 122.147,232.180 122.359 C 232.271 122.528,232.283 122.667,232.206 122.667 C 232.130 122.667,232.056 123.285,232.042 124.042 C 232.028 124.798,232.012 125.464,232.008 125.522 C 232.004 125.580,231.850 125.667,231.666 125.715 C 231.467 125.767,231.375 125.735,231.437 125.634 C 231.495 125.540,231.384 125.550,231.182 125.658 C 230.969 125.772,230.873 125.931,230.944 126.050 C 231.010 126.160,230.925 126.138,230.755 126.000 C 230.463 125.764,230.457 125.772,230.656 126.145 C 230.824 126.461,230.825 126.514,230.657 126.411 C 230.505 126.317,230.473 126.380,230.541 126.641 C 230.609 126.897,230.556 127.007,230.359 127.025 C 230.208 127.039,229.996 127.059,229.890 127.069 C 229.493 127.107,229.000 127.730,229.000 128.192 L 229.000 128.667 227.042 128.696 C 225.965 128.713,224.966 128.727,224.824 128.728 C 224.681 128.729,224.563 128.847,224.562 128.990 C 224.560 129.133,224.546 129.456,224.530 129.708 L 224.500 130.167 221.422 130.167 L 218.343 130.167 218.349 138.165 C 218.354 145.097,218.388 146.198,218.608 146.417 C 218.948 146.757,236.587 146.792,236.725 146.453 C 236.788 146.297,236.810 146.298,236.820 146.458 C 236.837 146.717,237.333 146.738,237.333 146.480 C 237.333 146.345,237.399 146.347,237.568 146.488 C 237.900 146.763,238.095 146.400,237.806 146.044 C 237.616 145.809,237.620 145.791,237.833 145.917 C 238.042 146.040,238.049 146.021,237.873 145.804 C 237.491 145.333,237.995 145.192,240.215 145.149 C 242.228 145.111,243.037 144.915,242.514 144.592 C 241.740 144.114,243.037 143.535,244.607 143.658 C 244.838 143.676,245.099 143.496,245.348 143.146 C 245.559 142.849,245.635 142.667,245.516 142.740 C 245.344 142.846,245.339 142.802,245.489 142.520 C 245.661 142.199,246.129 142.068,246.794 142.155 C 246.910 142.170,247.049 142.067,247.103 141.925 C 247.157 141.784,247.277 141.715,247.369 141.772 C 247.471 141.835,247.449 141.930,247.309 142.018 C 247.133 142.130,247.148 142.162,247.375 142.164 C 247.542 142.166,247.668 142.042,247.669 141.875 C 247.671 141.705,247.723 141.655,247.794 141.756 C 247.903 141.908,248.035 141.928,248.450 141.854 C 248.514 141.843,248.477 141.743,248.367 141.633 C 248.094 141.361,248.115 141.167,248.417 141.167 C 248.554 141.167,248.667 141.066,248.667 140.943 C 248.667 140.602,249.410 140.314,249.671 140.555 C 249.834 140.705,249.855 140.702,249.764 140.540 C 249.696 140.419,249.756 140.289,249.906 140.231 C 250.059 140.172,250.167 139.932,250.167 139.649 C 250.167 139.349,250.254 139.167,250.397 139.167 C 250.524 139.167,250.669 139.007,250.720 138.813 C 250.795 138.526,250.895 138.479,251.248 138.568 C 251.743 138.692,251.794 138.270,251.333 137.863 C 251.196 137.741,251.169 137.685,251.274 137.737 C 251.515 137.856,251.667 137.470,251.667 136.736 C 251.667 136.341,251.743 136.167,251.917 136.167 C 252.054 136.167,252.168 136.073,252.169 135.958 C 252.171 135.805,252.209 135.809,252.315 135.976 C 252.723 136.620,253.130 135.890,253.150 134.474 C 253.174 132.875,253.087 133.045,253.917 132.965 C 254.283 132.930,254.593 132.811,254.604 132.700 C 254.616 132.590,254.645 132.481,254.670 132.458 C 254.739 132.394,254.804 130.320,254.820 127.724 C 254.833 125.393,254.838 125.366,255.193 125.459 C 255.453 125.527,255.517 125.495,255.423 125.343 C 255.321 125.178,255.369 125.174,255.649 125.324 C 255.928 125.473,255.995 125.468,255.961 125.299 C 255.936 125.180,256.014 125.103,256.132 125.127 C 256.301 125.162,256.307 125.095,256.157 124.816 C 256.024 124.567,256.022 124.494,256.150 124.573 C 256.460 124.765,256.393 36.846,256.082 36.434 C 255.951 36.260,255.888 36.046,255.942 35.959 C 255.996 35.872,255.872 35.890,255.667 36.000 C 255.455 36.113,255.339 36.126,255.399 36.028 C 255.519 35.835,233.806 35.750,233.612 35.943 M391.377 37.451 C 391.172 37.490,390.797 37.491,390.544 37.453 C 390.291 37.415,390.458 37.382,390.917 37.381 C 391.375 37.380,391.582 37.411,391.377 37.451 M387.321 43.585 C 387.341 46.506,387.292 48.006,387.175 48.078 C 387.024 48.171,386.905 47.580,386.983 47.118 C 386.995 47.046,386.932 46.851,386.843 46.685 C 386.733 46.479,386.746 46.321,386.883 46.182 C 387.040 46.024,387.015 46.006,386.772 46.099 C 386.505 46.200,386.479 46.161,386.588 45.818 C 386.703 45.457,386.688 45.441,386.431 45.655 C 386.275 45.784,386.164 45.821,386.184 45.737 C 386.249 45.459,385.968 45.000,385.798 45.105 C 385.692 45.171,385.703 45.253,385.830 45.331 C 385.972 45.419,385.954 45.482,385.764 45.555 C 385.532 45.644,385.500 45.406,385.500 43.578 C 385.500 41.463,385.600 41.167,386.133 41.700 C 386.289 41.856,386.333 41.821,386.333 41.543 C 386.333 41.347,386.420 41.133,386.526 41.067 C 386.645 40.994,386.673 41.022,386.599 41.141 C 386.534 41.247,386.551 41.333,386.637 41.333 C 386.724 41.333,386.834 41.183,386.882 41.000 C 386.934 40.799,386.902 40.708,386.800 40.771 C 386.693 40.837,386.674 40.738,386.750 40.500 C 386.912 39.989,386.972 39.658,386.990 39.167 C 387.001 38.868,387.046 38.814,387.148 38.975 C 387.226 39.099,387.304 41.174,387.321 43.585 M381.513 39.938 C 381.486 40.328,381.942 40.521,382.186 40.223 C 382.392 39.973,382.377 39.952,382.050 40.037 C 381.846 40.089,381.648 40.047,381.604 39.941 C 381.548 39.802,381.523 39.802,381.513 39.938 M396.633 42.178 C 396.872 42.188,396.877 42.208,396.663 42.303 C 396.434 42.406,396.384 42.605,396.499 42.958 C 396.521 43.027,396.530 43.141,396.519 43.211 C 396.500 43.330,397.430 43.230,397.660 43.088 C 397.717 43.052,397.775 43.170,397.789 43.348 C 397.802 43.527,397.743 43.630,397.657 43.577 C 397.570 43.524,397.500 43.549,397.500 43.634 C 397.500 43.718,397.323 43.768,397.107 43.744 C 396.520 43.680,396.187 43.925,396.484 44.201 C 396.611 44.320,396.670 44.335,396.615 44.236 C 396.560 44.137,396.617 44.056,396.741 44.056 C 396.866 44.056,396.930 44.156,396.883 44.278 C 396.836 44.400,396.693 44.500,396.566 44.500 C 396.438 44.500,396.333 44.575,396.333 44.667 C 396.333 44.758,396.418 44.833,396.520 44.833 C 396.657 44.833,396.658 44.893,396.524 45.054 C 396.424 45.175,396.377 45.557,396.421 45.902 C 396.473 46.307,396.438 46.507,396.322 46.468 C 396.223 46.435,396.140 46.335,396.138 46.246 C 396.136 46.156,396.067 45.958,395.985 45.805 C 395.886 45.619,395.905 45.499,396.043 45.443 C 396.157 45.397,396.096 45.354,395.908 45.346 C 395.720 45.339,395.495 45.266,395.408 45.183 C 395.321 45.100,395.100 44.996,394.917 44.952 C 394.731 44.908,394.865 44.863,395.218 44.853 C 395.595 44.841,395.811 44.766,395.750 44.667 C 395.693 44.575,395.763 44.500,395.905 44.500 C 396.049 44.500,396.152 44.371,396.138 44.208 C 396.125 44.048,396.140 43.054,396.172 42.000 C 396.213 40.657,396.249 40.395,396.290 41.125 C 396.338 41.966,396.404 42.169,396.633 42.178 M397.007 42.846 C 397.177 43.163,397.163 43.176,396.841 43.004 C 396.648 42.901,396.535 42.745,396.589 42.658 C 396.731 42.428,396.800 42.459,397.007 42.846 M391.727 46.912 C 391.700 47.252,391.782 47.591,391.924 47.734 C 392.057 47.867,392.167 48.069,392.167 48.183 C 392.167 48.507,392.686 49.000,393.026 49.000 C 393.195 49.000,393.333 49.104,393.333 49.232 C 393.333 49.534,392.489 49.752,392.328 49.492 C 392.242 49.352,392.177 49.349,392.094 49.482 C 392.032 49.584,391.755 49.667,391.480 49.667 C 391.205 49.667,391.022 49.600,391.072 49.518 C 391.125 49.432,390.918 49.425,390.582 49.500 C 390.232 49.579,390.000 49.568,390.000 49.473 C 390.000 49.385,389.913 49.367,389.808 49.433 C 389.691 49.505,389.660 49.478,389.730 49.366 C 389.793 49.265,389.966 49.228,390.116 49.286 C 390.313 49.361,390.350 49.329,390.251 49.169 C 390.149 49.003,390.204 48.971,390.474 49.042 C 390.672 49.093,390.797 49.076,390.752 49.003 C 390.707 48.931,390.782 48.778,390.919 48.665 C 391.121 48.497,391.167 48.509,391.167 48.730 C 391.167 48.905,391.299 48.993,391.542 48.981 C 391.775 48.969,391.817 48.935,391.654 48.891 C 391.300 48.795,391.199 46.333,391.550 46.333 C 391.702 46.333,391.758 46.518,391.727 46.912 M381.833 46.651 C 381.833 46.740,381.910 46.861,382.003 46.918 C 382.096 46.976,382.132 47.088,382.083 47.167 C 382.035 47.246,382.090 47.365,382.206 47.432 C 382.322 47.499,382.361 47.492,382.293 47.417 C 382.225 47.342,382.249 47.185,382.346 47.069 C 382.475 46.912,382.431 46.808,382.177 46.672 C 381.968 46.560,381.833 46.552,381.833 46.651 M192.042 53.974 C 192.326 53.990,192.500 54.095,192.500 54.250 C 192.500 54.387,192.631 54.501,192.792 54.503 C 192.961 54.504,193.011 54.556,192.911 54.628 C 192.816 54.695,192.741 54.862,192.744 55.000 C 192.751 55.286,193.189 55.347,193.372 55.089 C 193.443 54.990,193.496 55.050,193.497 55.228 C 193.499 55.465,193.586 55.516,193.864 55.444 C 194.445 55.292,195.697 55.515,195.605 55.754 C 195.562 55.867,195.610 56.044,195.713 56.146 C 195.851 56.285,195.848 56.333,195.700 56.333 C 195.407 56.333,196.031 56.934,196.333 56.942 C 196.471 56.946,196.634 56.871,196.697 56.775 C 196.759 56.679,196.859 56.796,196.919 57.035 C 196.979 57.273,197.172 57.506,197.347 57.552 C 197.523 57.598,197.667 57.763,197.667 57.919 C 197.667 58.102,197.578 58.168,197.417 58.106 C 197.279 58.054,197.167 58.075,197.167 58.154 C 197.167 58.346,197.657 58.526,197.851 58.406 C 197.936 58.353,197.965 58.246,197.917 58.167 C 197.868 58.088,197.904 57.976,197.997 57.918 C 198.090 57.861,198.167 57.898,198.167 58.000 C 198.167 58.102,198.244 58.139,198.337 58.081 C 198.431 58.023,198.498 58.037,198.484 58.113 C 198.406 58.563,198.529 59.070,198.644 58.776 C 198.753 58.501,198.787 58.515,198.966 58.909 C 199.211 59.447,199.213 59.500,198.990 59.500 C 198.893 59.500,198.867 59.406,198.931 59.292 C 199.024 59.127,199.002 59.127,198.823 59.293 C 198.634 59.468,198.644 59.549,198.881 59.786 C 199.118 60.023,199.198 60.032,199.374 59.843 C 199.539 59.665,199.540 59.642,199.375 59.735 C 199.073 59.906,199.119 59.746,199.449 59.479 C 199.608 59.350,199.679 59.335,199.613 59.446 C 199.543 59.563,199.631 59.686,199.831 59.749 C 200.155 59.852,200.238 60.144,200.175 60.947 C 200.138 61.409,200.799 61.823,201.019 61.476 C 201.124 61.309,201.162 61.305,201.164 61.458 C 201.166 61.573,201.279 61.667,201.417 61.667 C 201.621 61.667,201.667 61.954,201.667 63.250 C 201.667 64.399,201.724 64.837,201.875 64.846 C 202.042 64.857,202.042 64.876,201.875 64.944 C 201.760 64.990,201.667 65.101,201.667 65.190 C 201.667 65.280,201.726 65.316,201.800 65.271 C 201.873 65.226,202.042 65.262,202.175 65.351 C 202.370 65.483,202.356 65.505,202.102 65.465 C 201.903 65.435,201.770 65.528,201.740 65.721 C 201.708 65.926,201.770 65.996,201.930 65.935 C 202.060 65.885,202.168 65.935,202.169 66.047 C 202.171 66.189,202.215 66.182,202.315 66.024 C 202.410 65.874,202.495 65.857,202.568 65.975 C 202.628 66.072,202.788 66.110,202.923 66.058 C 203.139 65.975,203.164 67.120,203.126 75.273 C 203.087 83.862,203.062 84.583,202.803 84.585 C 202.649 84.587,202.468 84.643,202.401 84.710 C 202.333 84.778,202.140 84.833,201.972 84.833 C 201.804 84.833,201.676 84.890,201.686 84.958 C 201.807 85.723,201.632 87.500,201.436 87.500 C 201.309 87.500,201.166 87.650,201.118 87.833 C 201.070 88.017,200.945 88.167,200.839 88.167 C 200.733 88.167,200.689 88.099,200.740 88.016 C 200.792 87.932,200.684 87.904,200.500 87.952 C 200.317 88.000,200.167 88.110,200.167 88.196 C 200.167 88.282,200.260 88.297,200.375 88.228 C 200.517 88.143,200.510 88.193,200.355 88.385 C 200.198 88.578,200.187 88.667,200.319 88.667 C 200.458 88.667,200.464 88.757,200.339 88.989 C 200.244 89.166,200.166 89.560,200.164 89.864 C 200.163 90.168,200.089 90.529,200.000 90.667 C 199.875 90.860,199.838 90.865,199.836 90.691 C 199.834 90.556,199.732 90.505,199.583 90.566 C 199.446 90.621,199.209 90.717,199.056 90.778 C 198.847 90.862,198.814 90.831,198.921 90.653 C 199.043 90.451,199.023 90.450,198.782 90.645 C 198.477 90.893,198.395 91.084,198.667 90.917 C 198.884 90.782,198.878 90.939,198.649 91.365 C 198.510 91.627,198.517 91.741,198.682 91.843 C 198.911 91.984,198.461 92.153,197.708 92.210 C 197.353 92.236,197.287 92.367,197.288 93.038 C 197.289 93.196,197.224 93.286,197.145 93.236 C 197.065 93.187,197.000 93.264,197.000 93.407 C 197.000 93.571,196.851 93.667,196.597 93.667 C 196.051 93.667,195.648 93.836,195.761 94.017 C 195.812 94.100,195.770 94.167,195.669 94.167 C 195.568 94.167,195.498 94.260,195.512 94.375 C 195.612 95.142,195.565 95.167,194.010 95.167 C 193.100 95.167,192.475 95.239,192.406 95.351 C 192.326 95.480,192.248 95.467,192.148 95.309 C 192.038 95.136,192.005 95.154,192.003 95.389 C 192.001 95.562,191.910 95.661,191.792 95.618 C 191.677 95.576,191.602 95.457,191.625 95.354 C 191.685 95.083,191.593 95.121,191.239 95.512 C 191.039 95.733,191.007 95.838,191.151 95.804 C 191.274 95.774,191.409 95.844,191.451 95.958 C 191.494 96.075,191.393 96.172,191.222 96.180 C 191.045 96.187,191.005 96.229,191.126 96.277 C 191.692 96.506,190.973 96.667,189.389 96.667 C 187.964 96.667,187.648 96.623,187.719 96.437 C 187.768 96.311,187.723 96.123,187.620 96.020 C 187.482 95.882,187.496 95.833,187.675 95.832 C 187.808 95.832,187.708 95.694,187.454 95.526 C 187.085 95.283,186.616 95.214,185.138 95.188 C 183.541 95.160,181.986 94.885,183.083 94.825 C 183.276 94.815,183.326 94.770,183.201 94.721 C 183.034 94.654,183.030 94.581,183.183 94.397 C 183.345 94.201,183.324 94.180,183.065 94.277 C 182.793 94.380,182.780 94.359,182.966 94.129 C 183.299 93.721,182.754 93.548,182.208 93.890 C 182.091 93.963,182.000 93.943,182.000 93.843 C 182.000 93.742,181.628 93.666,181.125 93.664 C 180.045 93.661,179.674 93.476,179.989 93.096 C 180.170 92.879,180.168 92.833,179.979 92.831 C 179.799 92.829,179.803 92.795,179.999 92.671 C 180.201 92.543,180.207 92.474,180.033 92.300 C 179.859 92.126,179.790 92.132,179.662 92.335 C 179.538 92.531,179.505 92.535,179.503 92.355 C 179.500 92.165,179.455 92.163,179.237 92.344 C 179.030 92.516,178.948 92.518,178.847 92.355 C 178.777 92.242,178.651 92.162,178.568 92.178 C 178.485 92.193,178.135 92.197,177.792 92.186 L 177.167 92.167 177.167 91.417 C 177.167 91.004,177.110 90.676,177.042 90.686 C 176.973 90.697,176.860 90.688,176.792 90.666 C 176.520 90.578,176.319 90.541,176.000 90.521 C 175.669 90.500,175.667 90.382,175.667 75.170 L 175.667 59.840 176.169 59.898 C 176.579 59.946,176.637 59.915,176.482 59.728 C 176.334 59.550,176.356 59.500,176.583 59.500 C 176.823 59.500,176.838 59.456,176.667 59.250 C 176.496 59.045,176.509 59.000,176.739 59.000 C 176.894 59.000,176.973 58.924,176.916 58.832 C 176.790 58.628,177.043 58.532,177.909 58.458 C 178.544 58.404,178.571 58.377,178.633 57.743 C 178.711 56.929,178.548 57.021,180.007 56.965 C 180.872 56.931,181.238 56.855,181.210 56.714 C 181.189 56.603,181.266 56.549,181.383 56.593 C 181.523 56.647,181.609 56.493,181.636 56.138 C 181.689 55.440,181.581 55.487,183.238 55.449 C 184.301 55.425,184.725 55.351,184.855 55.166 C 185.003 54.957,185.016 54.964,184.938 55.208 C 184.877 55.396,184.931 55.500,185.089 55.500 C 185.223 55.500,185.334 55.369,185.336 55.208 C 185.338 54.959,185.362 54.953,185.500 55.167 C 185.637 55.379,185.662 55.371,185.664 55.115 C 185.666 54.949,185.743 54.861,185.836 54.918 C 185.929 54.976,185.955 55.112,185.893 55.220 C 185.828 55.333,185.844 55.358,185.932 55.278 C 186.137 55.090,186.132 54.777,185.922 54.628 C 185.822 54.556,185.872 54.504,186.042 54.503 C 186.202 54.501,186.333 54.392,186.333 54.260 C 186.333 53.946,189.091 53.808,192.042 53.974 " stroke="none" fill="#bcbcbc" fill-rule="evenodd"></path><path id="path1" d="M83.124 11.599 C 83.056 11.667,83.000 13.397,83.000 15.444 L 83.000 19.167 72.434 19.167 C 60.806 19.167,61.667 19.086,61.667 20.176 L 61.667 20.659 58.708 20.704 L 55.750 20.750 55.699 21.458 C 55.650 22.135,55.624 22.167,55.107 22.167 C 54.335 22.167,54.167 22.424,54.167 23.607 C 54.167 25.313,52.704 25.167,69.704 25.167 L 84.500 25.167 84.500 25.915 L 84.500 26.664 76.208 26.707 L 67.917 26.750 67.865 27.458 L 67.814 28.167 54.337 28.167 C 39.439 28.167,40.333 28.112,40.333 29.018 C 40.333 29.624,40.301 29.667,39.845 29.667 C 38.965 29.667,38.463 31.175,38.934 32.403 C 39.025 32.639,40.054 32.667,48.851 32.667 L 58.667 32.667 58.667 33.417 L 58.667 34.167 72.375 34.190 C 79.915 34.203,85.783 34.260,85.417 34.315 C 84.793 34.410,84.740 34.462,84.593 35.125 L 84.436 35.833 68.790 35.833 C 51.897 35.833,52.500 35.799,52.500 36.756 L 52.500 37.333 41.912 37.333 L 31.324 37.333 31.370 39.542 L 31.417 41.750 52.615 41.792 L 73.814 41.835 73.865 42.542 L 73.917 43.250 77.750 43.338 C 79.858 43.386,81.227 43.443,80.792 43.463 L 80.000 43.500 80.000 44.249 L 80.000 44.999 58.792 45.041 L 37.583 45.083 37.426 45.792 L 37.269 46.500 31.212 46.500 L 25.154 46.500 25.202 47.958 L 25.250 49.417 33.615 49.460 L 41.981 49.503 42.032 50.210 L 42.083 50.917 58.917 51.000 C 68.175 51.046,75.656 51.144,75.542 51.218 C 75.427 51.292,75.333 51.606,75.333 51.916 L 75.333 52.478 72.494 52.531 C 69.415 52.588,69.341 52.611,69.336 53.542 L 69.333 54.000 46.601 54.000 C 26.026 54.000,23.859 54.025,23.768 54.264 C 23.712 54.409,23.667 54.781,23.667 55.090 L 23.667 55.654 22.208 55.702 L 20.750 55.750 20.750 57.083 L 20.750 58.417 38.199 58.459 L 55.648 58.502 55.699 59.209 L 55.750 59.917 63.292 59.960 L 70.833 60.003 70.833 60.833 L 70.833 61.663 63.292 61.707 L 55.750 61.750 55.699 62.458 L 55.648 63.167 50.240 63.167 L 44.833 63.167 44.833 62.518 C 44.833 61.649,44.927 61.667,40.332 61.667 C 35.959 61.667,35.833 61.695,35.833 62.677 L 35.833 63.164 27.542 63.207 L 19.250 63.250 19.250 64.667 L 19.250 66.083 21.458 66.130 L 23.667 66.176 23.667 66.722 C 23.667 67.687,23.501 67.664,30.742 67.701 C 34.413 67.720,36.723 67.761,35.875 67.791 L 34.333 67.846 34.333 68.572 L 34.333 69.298 33.013 69.358 C 31.396 69.431,31.431 69.396,31.358 71.013 L 31.298 72.333 25.232 72.333 L 19.167 72.333 19.167 73.833 L 19.167 75.333 25.250 75.333 L 31.333 75.333 31.333 75.982 C 31.333 76.688,31.508 76.833,32.356 76.833 C 33.181 76.833,33.016 78.329,32.167 78.547 C 31.495 78.721,31.339 78.906,31.336 79.537 L 31.333 79.991 29.042 80.037 L 26.750 80.083 26.699 80.792 L 26.648 81.500 22.907 81.500 L 19.167 81.500 19.167 82.917 L 19.167 84.333 23.708 84.358 C 26.206 84.372,27.912 84.428,27.500 84.483 C 26.755 84.583,26.750 84.588,26.699 85.292 C 26.651 85.949,26.613 86.000,26.169 86.000 C 25.563 86.000,25.167 86.391,25.167 86.991 C 25.167 87.406,25.094 87.469,24.502 87.564 C 23.883 87.663,23.830 87.715,23.733 88.318 L 23.629 88.966 22.308 89.026 C 20.727 89.098,20.648 89.179,20.707 90.667 L 20.750 91.750 21.500 91.945 L 22.250 92.140 21.458 92.153 L 20.667 92.167 20.667 92.917 L 20.667 93.667 19.917 93.667 L 19.167 93.667 19.167 94.417 L 19.167 95.167 18.417 95.167 L 17.667 95.167 17.635 95.958 C 17.617 96.409,17.563 96.105,17.510 95.250 L 17.417 93.750 16.708 93.699 L 16.000 93.648 16.000 90.774 C 16.000 88.761,15.940 87.840,15.800 87.700 C 15.588 87.488,2.141 87.400,1.374 87.605 C 1.092 87.681,0.972 87.869,0.894 88.353 C 0.808 88.894,0.726 89.000,0.395 89.000 C 0.009 89.000,0.000 89.033,0.000 90.500 C 0.000 91.989,0.003 92.000,0.417 92.000 L 0.833 92.000 0.836 96.125 C 0.838 101.018,0.830 100.969,1.686 101.106 L 2.333 101.209 2.333 103.174 C 2.333 105.594,2.358 105.667,3.178 105.667 L 3.820 105.667 3.869 107.125 L 3.917 108.583 4.708 108.634 L 5.500 108.685 5.500 109.426 L 5.500 110.167 6.241 110.167 L 6.982 110.167 7.033 110.958 L 7.083 111.750 15.898 111.793 C 25.544 111.840,25.167 111.880,25.167 110.819 L 25.167 110.180 26.625 110.131 L 28.083 110.083 28.134 109.384 C 28.184 108.692,28.192 108.684,28.884 108.634 C 29.578 108.584,29.584 108.578,29.635 107.875 L 29.686 107.167 30.426 107.167 L 31.167 107.167 31.167 106.417 L 31.167 105.667 31.917 105.667 L 32.667 105.667 32.667 104.917 C 32.667 104.251,32.709 104.166,33.042 104.164 C 33.930 104.159,34.147 103.995,34.212 103.275 C 34.247 102.894,34.288 103.315,34.304 104.208 L 34.333 105.833 32.833 105.833 L 31.333 105.833 31.333 108.000 L 31.333 110.167 32.833 110.167 L 34.333 110.167 34.333 110.899 C 34.333 111.691,34.487 111.833,35.340 111.833 L 35.820 111.833 35.869 113.292 L 35.917 114.750 36.616 114.801 C 37.308 114.851,37.316 114.858,37.366 115.551 C 37.416 116.245,37.422 116.250,38.125 116.301 C 38.727 116.345,38.834 116.408,38.836 116.718 C 38.841 117.615,39.008 117.833,39.686 117.833 C 40.270 117.833,40.333 117.875,40.333 118.261 C 40.333 119.199,40.553 119.333,42.089 119.333 L 43.500 119.333 43.500 120.083 L 43.500 120.833 45.000 120.833 L 46.500 120.833 46.500 121.590 L 46.500 122.346 47.958 122.298 L 49.417 122.250 49.465 120.792 L 49.513 119.333 57.090 119.333 L 64.667 119.333 64.667 119.883 C 64.667 120.873,64.239 120.833,74.783 120.833 L 84.500 120.833 84.500 121.667 L 84.500 122.500 70.347 122.500 C 62.563 122.500,56.075 122.546,55.930 122.601 C 55.721 122.681,55.667 122.970,55.667 124.000 C 55.667 125.407,55.729 125.500,56.671 125.500 C 57.112 125.500,57.151 125.552,57.199 126.208 L 57.250 126.917 60.194 126.962 L 63.139 127.008 63.249 127.662 C 63.398 128.544,63.153 128.524,73.000 128.465 L 81.250 128.417 81.301 127.711 L 81.352 127.006 85.134 126.961 L 88.917 126.917 88.968 126.213 L 89.019 125.510 91.218 125.463 L 93.417 125.417 93.468 124.715 L 93.519 124.013 94.968 123.965 L 96.417 123.917 96.467 123.125 L 96.518 122.333 97.342 122.333 L 98.167 122.333 98.167 121.588 L 98.167 120.843 100.375 120.797 L 102.583 120.750 102.635 120.042 L 102.686 119.333 103.976 119.333 C 105.428 119.333,105.667 119.199,105.667 118.383 C 105.667 117.843,105.679 117.833,106.417 117.833 L 107.167 117.833 107.167 117.083 L 107.167 116.333 107.917 116.333 L 108.667 116.333 108.667 114.840 L 108.667 113.346 110.208 113.298 L 111.750 113.250 111.801 112.551 C 111.851 111.858,111.858 111.851,112.551 111.801 L 113.250 111.750 113.301 110.958 L 113.352 110.167 114.092 110.167 L 114.833 110.167 114.833 109.417 L 114.833 108.667 115.583 108.667 L 116.333 108.667 116.333 107.926 L 116.333 107.186 117.042 107.135 L 117.750 107.083 117.750 105.750 L 117.750 104.417 108.667 104.331 L 99.583 104.246 109.458 104.206 L 119.333 104.167 119.333 103.417 C 119.333 102.699,119.354 102.667,119.820 102.667 C 120.782 102.667,120.833 102.586,120.833 101.066 L 120.833 99.667 121.467 99.667 C 122.382 99.667,122.500 99.463,122.500 97.883 L 122.500 96.500 122.958 96.497 C 123.853 96.492,123.912 96.351,123.972 94.090 L 124.027 92.000 126.222 91.996 C 129.341 91.990,129.991 91.797,129.997 90.875 C 130.000 90.542,130.084 90.500,130.750 90.500 L 131.500 90.500 131.500 89.774 L 131.500 89.049 132.792 88.941 C 134.172 88.825,134.500 88.622,134.500 87.880 C 134.500 87.665,134.594 87.465,134.708 87.434 C 135.830 87.136,135.917 87.073,136.000 86.496 C 136.078 85.957,136.130 85.913,136.748 85.863 C 137.507 85.801,137.661 85.635,137.664 84.875 C 137.667 84.357,137.695 84.333,138.316 84.333 C 139.017 84.333,139.167 84.157,139.167 83.329 C 139.167 82.888,139.219 82.849,139.875 82.801 C 140.580 82.750,140.584 82.747,140.635 82.042 C 140.686 81.337,140.690 81.333,141.340 81.333 C 142.028 81.333,142.081 81.262,142.203 80.167 C 142.240 79.840,142.358 79.738,142.750 79.696 C 143.379 79.627,143.508 79.500,143.649 78.807 C 143.747 78.329,143.844 78.238,144.336 78.167 C 144.905 78.084,144.970 77.994,145.268 76.875 C 145.298 76.760,145.548 76.667,145.822 76.667 C 146.457 76.667,146.650 76.316,146.780 74.924 L 146.880 73.850 147.565 73.800 L 148.250 73.750 148.300 72.967 L 148.351 72.185 149.050 72.134 C 149.743 72.084,149.750 72.077,149.801 71.384 C 149.851 70.692,149.858 70.684,150.551 70.634 C 151.245 70.584,151.250 70.578,151.301 69.875 C 151.352 69.172,151.357 69.167,152.000 69.167 C 152.844 69.167,152.811 69.263,152.985 66.312 L 153.136 63.760 153.818 63.124 C 154.193 62.774,154.500 62.434,154.500 62.369 C 154.498 62.020,155.277 60.859,155.661 60.639 C 155.917 60.492,156.172 60.146,156.266 59.818 C 156.385 59.401,156.593 59.172,157.047 58.957 C 157.388 58.796,157.667 58.556,157.667 58.423 C 157.667 57.892,158.058 57.365,158.560 57.221 C 158.974 57.103,159.101 56.962,159.167 56.546 C 159.215 56.244,159.514 55.752,159.872 55.385 C 161.278 53.949,162.173 52.859,162.408 52.296 C 162.566 51.917,162.847 51.616,163.173 51.474 C 163.519 51.324,163.720 51.098,163.783 50.787 C 163.879 50.316,164.539 49.667,164.923 49.667 C 165.039 49.667,165.200 49.385,165.281 49.042 C 165.401 48.530,165.532 48.383,166.003 48.229 C 166.457 48.081,166.601 47.928,166.688 47.505 C 166.753 47.186,167.066 46.722,167.460 46.360 C 167.825 46.024,168.259 45.450,168.424 45.083 C 168.743 44.378,169.116 43.934,169.495 43.807 C 169.622 43.765,169.807 43.435,169.907 43.074 C 170.054 42.545,170.194 42.386,170.623 42.259 C 171.042 42.135,171.201 41.960,171.369 41.441 C 171.487 41.078,171.696 40.729,171.833 40.667 C 172.595 40.319,172.755 40.179,172.806 39.816 C 172.837 39.597,173.010 39.257,173.190 39.063 C 173.518 38.709,173.518 38.709,173.079 38.625 C 172.768 38.566,172.617 38.620,172.561 38.812 C 172.353 39.522,172.035 39.905,171.504 40.083 C 171.184 40.190,170.886 40.420,170.838 40.597 C 170.682 41.165,170.427 41.448,169.924 41.612 C 169.575 41.726,169.393 41.922,169.299 42.285 C 169.199 42.670,169.007 42.861,168.523 43.055 C 168.032 43.251,167.856 43.428,167.781 43.801 C 167.706 44.179,167.530 44.352,167.008 44.561 C 166.563 44.739,166.333 44.935,166.333 45.136 C 166.333 45.499,165.715 46.109,165.265 46.192 C 165.074 46.227,164.869 46.483,164.754 46.833 C 164.622 47.233,164.394 47.492,164.028 47.657 C 163.663 47.820,163.452 48.059,163.362 48.407 C 163.270 48.766,163.038 49.018,162.574 49.261 C 162.213 49.451,161.890 49.751,161.858 49.928 C 161.777 50.368,161.340 50.833,161.008 50.833 C 160.656 50.833,160.333 51.156,160.333 51.508 C 160.333 51.840,159.868 52.277,159.428 52.358 C 159.251 52.390,158.951 52.713,158.761 53.074 C 158.511 53.552,158.269 53.770,157.875 53.871 C 157.523 53.961,157.333 54.112,157.333 54.301 C 157.333 54.771,156.882 55.282,156.377 55.383 C 156.032 55.452,155.854 55.629,155.700 56.055 C 155.288 57.194,153.000 57.193,153.000 56.053 C 153.000 55.199,151.596 55.579,151.533 56.450 L 151.482 57.149 150.699 57.200 L 149.917 57.250 149.866 57.949 C 149.816 58.642,149.808 58.649,149.116 58.699 C 148.423 58.750,148.416 58.757,148.366 59.449 C 148.316 60.142,148.308 60.149,147.616 60.199 C 146.923 60.250,146.916 60.257,146.866 60.949 C 146.816 61.642,146.808 61.649,146.116 61.699 C 145.423 61.750,145.416 61.757,145.366 62.449 C 145.316 63.142,145.308 63.149,144.616 63.199 C 143.922 63.250,143.916 63.255,143.865 63.958 L 143.814 64.667 143.074 64.667 L 142.333 64.667 142.333 65.417 L 142.333 66.167 141.583 66.167 L 140.833 66.167 140.833 67.000 L 140.833 67.833 139.625 67.836 C 138.205 67.839,138.079 67.899,137.881 68.662 C 137.759 69.134,137.632 69.261,137.191 69.351 C 136.521 69.488,136.487 69.521,136.350 70.200 C 136.248 70.703,136.180 70.754,135.553 70.800 C 134.838 70.853,134.674 71.067,134.669 71.958 C 134.667 72.271,134.575 72.333,134.117 72.333 C 133.424 72.333,133.167 72.588,133.167 73.274 C 133.167 73.790,133.135 73.816,132.458 73.865 C 131.753 73.916,131.750 73.920,131.699 74.625 L 131.648 75.333 130.949 75.337 C 129.371 75.346,128.674 75.689,128.669 76.458 C 128.667 76.769,128.574 76.834,128.125 76.836 C 127.367 76.839,127.201 76.991,127.124 77.752 C 127.087 78.118,127.043 74.400,127.028 69.492 C 126.998 59.811,127.035 60.167,126.050 60.167 L 125.500 60.167 125.500 57.594 C 125.500 54.571,125.411 54.228,124.591 54.074 L 124.000 53.963 124.000 52.654 C 124.000 51.229,123.852 51.000,122.928 51.000 C 122.503 51.000,122.500 50.992,122.500 49.601 C 122.500 48.061,122.458 48.000,121.403 48.000 L 120.833 48.000 120.833 46.500 L 120.833 45.000 120.083 45.000 L 119.333 45.000 119.333 44.250 L 119.333 43.500 113.208 43.462 L 107.083 43.424 112.417 43.337 L 117.750 43.250 117.750 41.833 L 117.750 40.417 117.042 40.365 L 116.333 40.314 116.333 39.574 L 116.333 38.833 115.593 38.833 L 114.852 38.833 114.801 38.125 C 114.750 37.420,114.747 37.416,114.042 37.365 L 113.333 37.314 113.333 36.251 C 113.333 35.667,113.260 34.996,113.171 34.761 L 113.008 34.333 110.837 34.333 L 108.667 34.333 108.667 32.833 L 108.667 31.333 107.918 31.333 L 107.170 31.333 107.127 22.958 L 107.083 14.583 104.125 14.538 L 101.167 14.492 101.167 14.008 C 101.167 13.020,101.073 13.000,96.321 13.000 L 92.000 13.000 92.000 12.609 C 92.000 11.664,91.667 11.588,87.273 11.529 C 85.059 11.499,83.192 11.530,83.124 11.599 M186.444 19.278 C 186.383 19.339,186.333 19.676,186.333 20.028 C 186.333 20.659,186.325 20.667,185.686 20.667 C 185.006 20.667,184.841 20.885,184.836 21.792 C 184.834 22.116,184.746 22.167,184.186 22.167 C 183.506 22.167,183.341 22.385,183.336 23.292 C 183.334 23.588,183.238 23.667,182.875 23.669 C 182.202 23.673,181.965 23.889,181.849 24.608 C 181.765 25.130,181.668 25.261,181.331 25.308 C 180.741 25.390,180.500 25.639,180.500 26.169 C 180.500 26.632,180.251 26.833,179.679 26.833 C 179.296 26.833,178.879 27.309,178.807 27.827 C 178.763 28.142,178.619 28.264,178.187 28.352 C 177.435 28.505,177.339 28.706,177.336 30.125 L 177.333 31.333 176.583 31.333 L 175.833 31.333 175.833 32.083 L 175.833 32.833 175.000 32.833 L 174.167 32.833 174.167 33.583 L 174.167 34.333 173.408 34.333 L 172.648 34.333 172.699 35.125 C 172.742 35.789,172.808 35.925,173.109 35.968 C 173.490 36.022,173.750 36.516,173.924 37.516 C 174.049 38.240,175.172 38.833,176.418 38.833 L 177.167 38.833 177.167 38.093 L 177.167 37.352 177.875 37.301 L 178.583 37.250 178.634 36.467 L 178.684 35.685 179.384 35.634 C 180.078 35.584,180.084 35.578,180.135 34.875 C 180.181 34.230,180.226 34.166,180.635 34.164 C 181.449 34.159,181.575 33.952,181.641 32.515 L 181.701 31.184 182.476 31.133 L 183.250 31.083 183.301 30.375 C 183.350 29.698,183.376 29.667,183.893 29.667 C 184.574 29.667,184.833 29.410,184.833 28.738 C 184.833 28.253,184.887 28.201,185.480 28.106 C 186.147 27.999,186.326 27.741,186.331 26.875 C 186.333 26.574,186.427 26.500,186.813 26.500 C 187.495 26.500,187.653 26.217,187.775 24.775 L 187.882 23.500 188.608 23.500 L 189.333 23.500 189.333 21.333 L 189.333 19.167 187.944 19.167 C 187.181 19.167,186.506 19.217,186.444 19.278 M382.463 38.926 C 382.412 38.977,382.173 39.040,381.932 39.066 C 381.691 39.091,381.502 39.172,381.511 39.246 C 381.521 39.319,381.430 39.440,381.311 39.514 C 381.191 39.588,381.153 39.708,381.226 39.781 C 381.299 39.854,381.431 39.783,381.521 39.624 C 381.610 39.464,381.778 39.333,381.893 39.333 C 382.099 39.333,382.843 38.849,382.653 38.839 C 382.599 38.836,382.514 38.875,382.463 38.926 M381.167 47.000 C 381.167 47.092,381.250 47.167,381.351 47.167 C 381.453 47.167,381.491 47.283,381.436 47.425 C 381.379 47.574,381.407 47.641,381.502 47.582 C 381.593 47.526,381.667 47.560,381.667 47.657 C 381.667 47.754,381.779 47.833,381.917 47.833 C 382.054 47.833,382.167 47.758,382.167 47.667 C 382.167 47.575,382.059 47.500,381.928 47.500 C 381.797 47.500,381.642 47.350,381.583 47.167 C 381.475 46.825,381.167 46.701,381.167 47.000 M391.760 49.236 C 392.109 49.492,392.267 49.464,392.090 49.178 C 392.030 49.080,391.858 49.000,391.708 49.000 C 391.481 49.000,391.489 49.039,391.760 49.236 M382.667 50.083 C 382.667 50.221,382.742 50.333,382.833 50.333 C 382.925 50.333,382.981 50.424,382.958 50.535 C 382.935 50.646,383.079 50.748,383.277 50.761 C 383.475 50.775,383.760 50.834,383.911 50.891 C 384.401 51.079,384.021 50.716,383.504 50.501 C 383.227 50.387,383.000 50.189,383.000 50.063 C 383.000 49.937,382.925 49.833,382.833 49.833 C 382.742 49.833,382.667 49.946,382.667 50.083 M384.167 51.583 C 384.167 51.721,384.298 51.834,384.458 51.836 C 384.708 51.838,384.714 51.862,384.500 52.000 C 384.363 52.089,384.325 52.168,384.417 52.177 C 384.593 52.193,384.773 52.229,385.583 52.411 C 385.978 52.499,385.934 52.452,385.372 52.185 C 384.981 51.999,384.617 51.732,384.563 51.590 C 384.437 51.261,384.167 51.256,384.167 51.583 M387.406 53.351 C 387.330 53.473,387.352 53.508,387.462 53.440 C 387.561 53.379,387.668 53.461,387.700 53.623 C 387.738 53.815,387.799 53.851,387.877 53.727 C 387.943 53.623,387.891 53.451,387.763 53.344 C 387.585 53.197,387.500 53.198,387.406 53.351 M349.833 53.750 C 349.604 53.881,349.492 53.988,349.583 53.988 C 349.675 53.988,349.938 53.881,350.167 53.750 C 350.396 53.619,350.508 53.512,350.417 53.512 C 350.325 53.512,350.063 53.619,349.833 53.750 M176.860 59.424 C 176.581 60.037,176.634 60.167,176.936 59.610 C 177.077 59.350,177.162 59.106,177.123 59.068 C 177.085 59.030,176.967 59.190,176.860 59.424 M67.125 67.789 L 66.333 67.852 66.333 68.592 C 66.333 69.289,66.306 69.333,65.875 69.336 C 65.239 69.339,65.054 69.494,64.880 70.167 L 64.729 70.750 59.364 70.794 L 54.000 70.838 54.000 69.252 L 54.000 67.667 60.958 67.697 C 64.785 67.713,67.560 67.755,67.125 67.789 M84.453 70.458 C 84.415 70.710,84.383 70.504,84.383 70.000 C 84.383 69.496,84.415 69.290,84.453 69.542 C 84.491 69.794,84.491 70.206,84.453 70.458 M114.635 69.291 C 113.563 69.320,111.763 69.320,110.635 69.291 C 109.506 69.262,110.383 69.239,112.583 69.239 C 114.783 69.238,115.706 69.262,114.635 69.291 M61.221 76.953 C 60.478 77.046,60.348 77.277,60.225 78.725 L 60.118 80.000 56.309 80.000 L 52.500 80.000 52.500 78.417 L 52.500 76.833 57.125 76.860 C 59.669 76.875,61.512 76.917,61.221 76.953 M84.500 77.583 L 84.500 78.333 82.917 78.333 L 81.333 78.333 81.333 77.583 L 81.333 76.833 82.917 76.833 L 84.500 76.833 84.500 77.583 M84.500 86.667 L 84.500 87.500 80.625 87.483 C 78.494 87.474,76.982 87.411,77.265 87.343 C 78.023 87.162,78.167 87.030,78.167 86.518 C 78.167 85.830,78.150 85.833,81.444 85.833 L 84.500 85.833 84.500 86.667 M200.500 87.750 C 200.271 87.881,200.158 87.988,200.250 87.988 C 200.342 87.988,200.604 87.881,200.833 87.750 C 201.063 87.619,201.175 87.512,201.083 87.512 C 200.992 87.512,200.729 87.619,200.500 87.750 M225.190 88.672 C 224.973 88.852,224.875 89.000,224.972 89.000 C 225.068 89.000,225.194 88.924,225.252 88.831 C 225.309 88.737,225.414 88.697,225.484 88.740 C 225.554 88.783,225.611 88.709,225.611 88.576 C 225.611 88.443,225.605 88.336,225.597 88.339 C 225.590 88.342,225.406 88.492,225.190 88.672 M57.199 95.708 L 57.250 96.417 62.122 96.461 C 67.500 96.510,67.667 96.478,67.667 95.417 L 67.667 95.000 76.083 95.000 L 84.500 95.000 84.500 95.833 L 84.500 96.667 67.750 96.667 L 51.000 96.667 51.000 95.833 L 51.000 95.000 54.074 95.000 L 57.148 95.000 57.199 95.708 M109.958 95.125 C 108.056 95.152,104.944 95.152,103.042 95.125 C 101.140 95.098,102.696 95.076,106.500 95.076 C 110.304 95.076,111.860 95.098,109.958 95.125 M191.200 95.411 C 191.058 95.639,190.965 96.258,191.092 96.130 C 191.147 96.075,191.211 95.899,191.235 95.737 C 191.258 95.576,191.410 95.425,191.571 95.401 C 192.009 95.337,192.094 95.180,191.673 95.212 C 191.472 95.227,191.260 95.317,191.200 95.411 M81.500 103.254 C 81.500 103.978,81.857 104.150,83.469 104.204 C 84.082 104.225,82.521 104.281,80.000 104.329 L 75.417 104.417 75.365 105.125 L 75.314 105.833 63.157 105.833 L 51.000 105.833 51.000 104.250 L 51.000 102.667 66.250 102.667 L 81.500 102.667 81.500 103.254 M67.847 111.833 L 84.500 111.833 84.500 112.583 L 84.500 113.333 72.938 113.333 C 59.790 113.333,60.398 113.293,60.247 114.185 L 60.137 114.833 55.569 114.833 L 51.000 114.833 51.013 113.125 C 51.020 112.185,51.064 111.510,51.110 111.625 C 51.177 111.790,54.681 111.833,67.847 111.833 M183.386 114.415 C 183.406 114.609,183.558 114.760,183.752 114.780 C 183.992 114.805,184.006 114.791,183.802 114.730 C 183.647 114.684,183.483 114.520,183.436 114.365 C 183.376 114.161,183.362 114.174,183.386 114.415 M203.833 116.083 C 203.604 116.214,203.492 116.322,203.583 116.322 C 203.675 116.322,203.938 116.214,204.167 116.083 C 204.396 115.952,204.508 115.845,204.417 115.845 C 204.325 115.845,204.063 115.952,203.833 116.083 " stroke="none" fill="#045483" fill-rule="evenodd"></path><path id="path2" d="M172.733 36.147 C 172.773 36.295,172.856 36.589,172.917 36.799 C 173.087 37.389,172.384 38.207,167.458 43.157 C 165.006 45.621,163.000 47.724,163.000 47.831 C 163.000 48.011,159.195 51.890,158.887 52.024 C 158.812 52.057,158.540 52.365,158.283 52.708 C 158.026 53.052,157.726 53.336,157.617 53.338 C 157.507 53.341,157.163 53.680,156.854 54.091 C 156.544 54.502,156.048 54.953,155.752 55.094 C 155.455 55.234,155.130 55.531,155.029 55.753 C 154.804 56.246,154.124 56.443,153.550 56.182 C 153.045 55.952,152.858 56.072,153.107 56.466 C 153.595 57.239,155.379 56.942,155.707 56.034 C 155.854 55.629,156.036 55.451,156.377 55.383 C 156.882 55.282,157.333 54.771,157.333 54.301 C 157.333 54.112,157.523 53.961,157.875 53.871 C 158.269 53.770,158.511 53.552,158.761 53.074 C 158.951 52.713,159.251 52.390,159.428 52.358 C 159.868 52.277,160.333 51.840,160.333 51.508 C 160.333 51.156,160.656 50.833,161.008 50.833 C 161.340 50.833,161.777 50.368,161.858 49.928 C 161.890 49.751,162.213 49.451,162.574 49.261 C 163.038 49.018,163.270 48.766,163.362 48.407 C 163.452 48.059,163.663 47.820,164.028 47.657 C 164.394 47.492,164.622 47.233,164.754 46.833 C 164.869 46.483,165.074 46.227,165.265 46.192 C 165.715 46.109,166.333 45.499,166.333 45.136 C 166.333 44.935,166.563 44.739,167.008 44.561 C 167.530 44.352,167.706 44.179,167.781 43.801 C 167.856 43.428,168.032 43.251,168.523 43.055 C 169.007 42.861,169.199 42.670,169.299 42.285 C 169.393 41.922,169.575 41.726,169.924 41.612 C 170.427 41.448,170.682 41.165,170.838 40.597 C 170.886 40.420,171.184 40.190,171.504 40.083 C 172.035 39.905,172.353 39.522,172.561 38.812 C 172.617 38.620,172.768 38.566,173.079 38.625 C 173.518 38.709,173.518 38.709,173.190 39.063 C 173.010 39.257,172.837 39.597,172.806 39.816 C 172.775 40.036,172.637 40.268,172.500 40.332 C 171.710 40.698,171.564 40.841,171.369 41.441 C 171.201 41.960,171.042 42.135,170.623 42.259 C 170.194 42.386,170.054 42.545,169.907 43.074 C 169.807 43.435,169.622 43.765,169.495 43.807 C 169.116 43.934,168.743 44.378,168.424 45.083 C 168.259 45.450,167.825 46.024,167.460 46.360 C 167.066 46.722,166.753 47.186,166.688 47.505 C 166.601 47.928,166.457 48.081,166.003 48.229 C 165.532 48.383,165.401 48.530,165.281 49.042 C 165.200 49.385,165.039 49.667,164.923 49.667 C 164.539 49.667,163.879 50.316,163.783 50.787 C 163.720 51.098,163.519 51.324,163.173 51.474 C 162.847 51.616,162.566 51.917,162.408 52.296 C 162.173 52.859,161.278 53.949,159.872 55.385 C 159.514 55.752,159.215 56.244,159.167 56.546 C 159.101 56.962,158.974 57.103,158.560 57.221 C 158.058 57.365,157.667 57.892,157.667 58.423 C 157.667 58.556,157.388 58.796,157.047 58.957 C 156.593 59.172,156.385 59.401,156.266 59.818 C 156.172 60.146,155.917 60.492,155.661 60.639 C 155.277 60.859,154.498 62.020,154.500 62.369 C 154.500 62.434,154.198 62.772,153.829 63.119 C 153.191 63.718,153.153 63.808,153.084 64.917 C 153.043 65.558,153.054 65.933,153.106 65.750 C 153.159 65.567,153.259 65.342,153.328 65.250 C 153.397 65.158,153.504 64.875,153.565 64.619 C 153.628 64.357,153.854 64.074,154.085 63.969 C 154.311 63.866,154.653 63.456,154.845 63.058 C 155.038 62.660,155.390 62.182,155.627 61.996 C 155.864 61.809,156.195 61.352,156.361 60.979 C 156.683 60.261,157.785 58.905,158.958 57.784 C 159.348 57.411,159.667 57.017,159.667 56.906 C 159.667 56.796,159.929 56.506,160.250 56.261 C 160.571 56.016,160.946 55.599,161.083 55.335 C 161.220 55.070,161.556 54.720,161.831 54.558 C 162.111 54.393,162.409 54.025,162.509 53.722 C 162.607 53.425,162.874 53.009,163.101 52.799 C 163.329 52.589,163.628 52.207,163.766 51.951 C 164.031 51.457,164.209 51.232,165.208 50.123 C 165.552 49.742,165.833 49.343,165.833 49.236 C 165.833 49.130,166.090 48.867,166.403 48.653 C 166.716 48.438,167.088 48.020,167.230 47.722 C 167.371 47.425,167.707 47.068,167.976 46.929 C 168.253 46.786,168.543 46.450,168.647 46.151 C 168.818 45.662,169.403 45.000,169.665 45.000 C 169.728 45.000,169.881 44.693,170.005 44.319 C 170.128 43.944,170.590 43.253,171.031 42.783 C 171.473 42.314,171.833 41.874,171.833 41.806 C 171.833 41.738,172.152 41.343,172.542 40.928 C 172.931 40.513,173.416 39.985,173.619 39.754 C 173.922 39.409,174.139 39.333,174.827 39.333 C 175.945 39.333,175.953 38.957,174.847 38.474 C 174.131 38.162,174.014 38.040,173.924 37.516 C 173.746 36.489,173.498 36.039,173.066 35.956 C 172.751 35.896,172.675 35.939,172.733 36.147 " stroke="none" fill="#04648c" fill-rule="evenodd"></path><path id="path3" d="M171.778 35.944 C 171.717 36.006,171.667 36.375,171.667 36.766 C 171.667 37.463,171.616 37.526,168.958 40.151 C 167.469 41.622,166.175 42.907,166.083 43.006 C 165.992 43.105,165.654 43.445,165.333 43.761 C 164.516 44.566,164.564 44.517,163.921 45.208 C 163.601 45.552,163.279 45.833,163.205 45.833 C 163.131 45.833,162.791 46.319,162.450 46.914 C 162.080 47.556,161.633 48.095,161.346 48.243 C 161.081 48.380,160.773 48.700,160.660 48.955 C 160.548 49.209,160.226 49.534,159.946 49.677 C 159.666 49.820,159.320 50.166,159.177 50.446 C 159.034 50.726,158.714 51.045,158.465 51.155 C 158.217 51.265,157.862 51.600,157.678 51.899 C 157.493 52.198,157.156 52.527,156.929 52.631 C 156.702 52.734,156.402 53.039,156.264 53.307 C 156.125 53.575,155.671 53.994,155.256 54.238 C 154.840 54.481,154.500 54.784,154.500 54.911 C 154.500 55.082,154.308 55.125,153.750 55.077 C 153.022 55.015,153.000 55.027,153.000 55.486 C 153.000 56.401,154.635 56.617,155.029 55.753 C 155.130 55.531,155.455 55.234,155.752 55.094 C 156.048 54.953,156.544 54.502,156.854 54.091 C 157.163 53.680,157.507 53.341,157.617 53.338 C 157.726 53.336,158.026 53.052,158.283 52.708 C 158.540 52.365,158.812 52.057,158.887 52.024 C 159.195 51.890,163.000 48.011,163.000 47.831 C 163.000 47.724,165.006 45.621,167.458 43.157 C 172.867 37.722,173.089 37.448,172.837 36.513 C 172.660 35.857,172.143 35.579,171.778 35.944 M173.619 39.754 C 173.416 39.985,172.931 40.513,172.542 40.928 C 172.152 41.343,171.833 41.738,171.833 41.806 C 171.833 41.874,171.473 42.314,171.031 42.783 C 170.590 43.253,170.128 43.944,170.005 44.319 C 169.881 44.693,169.728 45.000,169.665 45.000 C 169.403 45.000,168.818 45.662,168.647 46.151 C 168.543 46.450,168.253 46.786,167.976 46.929 C 167.707 47.068,167.371 47.425,167.230 47.722 C 167.088 48.020,166.716 48.438,166.403 48.653 C 166.090 48.867,165.833 49.130,165.833 49.236 C 165.833 49.343,165.552 49.742,165.208 50.123 C 164.209 51.232,164.031 51.457,163.766 51.951 C 163.628 52.207,163.329 52.589,163.101 52.799 C 162.874 53.009,162.607 53.425,162.509 53.722 C 162.409 54.025,162.111 54.393,161.831 54.558 C 161.556 54.720,161.220 55.070,161.083 55.335 C 160.946 55.599,160.571 56.016,160.250 56.261 C 159.929 56.506,159.667 56.796,159.667 56.906 C 159.667 57.017,159.348 57.411,158.958 57.784 C 157.785 58.905,156.683 60.261,156.361 60.979 C 156.195 61.352,155.864 61.809,155.627 61.996 C 155.390 62.182,155.038 62.660,154.845 63.058 C 154.653 63.456,154.311 63.866,154.085 63.969 C 153.854 64.074,153.628 64.357,153.565 64.619 C 153.504 64.875,153.384 65.172,153.299 65.280 C 153.215 65.388,153.108 65.913,153.064 66.447 L 152.982 67.417 153.325 66.718 C 153.513 66.334,153.740 65.974,153.829 65.919 C 153.918 65.864,154.071 65.522,154.169 65.160 C 154.266 64.797,154.443 64.500,154.561 64.500 C 154.881 64.500,155.459 63.815,155.592 63.278 C 155.657 63.019,155.831 62.764,155.980 62.712 C 156.390 62.568,157.000 61.971,157.000 61.713 C 157.000 61.587,157.272 61.206,157.604 60.867 C 157.936 60.528,158.378 59.987,158.586 59.667 C 159.024 58.990,159.625 58.333,159.804 58.333 C 159.872 58.333,160.069 58.090,160.241 57.792 C 160.412 57.494,160.798 57.043,161.097 56.790 C 161.396 56.537,161.687 56.118,161.744 55.859 C 161.815 55.540,162.021 55.311,162.382 55.152 C 162.756 54.987,162.967 54.747,163.083 54.350 C 163.190 53.985,163.473 53.636,163.875 53.369 C 164.219 53.142,164.500 52.848,164.500 52.716 C 164.500 52.585,164.839 52.129,165.252 51.703 C 165.666 51.277,166.152 50.626,166.332 50.256 C 166.513 49.886,166.886 49.433,167.163 49.250 C 167.491 49.033,167.702 48.724,167.771 48.363 C 167.842 47.983,168.003 47.761,168.283 47.654 C 168.835 47.444,169.089 47.167,169.224 46.626 C 169.291 46.362,169.544 46.066,169.833 45.917 C 170.105 45.776,170.452 45.419,170.603 45.122 C 170.754 44.826,171.153 44.282,171.490 43.914 C 171.827 43.545,172.248 42.929,172.426 42.543 C 172.604 42.157,172.831 41.840,172.929 41.838 C 173.216 41.831,173.780 41.124,173.898 40.625 C 173.998 40.201,174.068 40.167,174.837 40.167 C 175.611 40.167,175.667 40.139,175.667 39.750 C 175.667 39.125,174.169 39.128,173.619 39.754 M391.500 47.139 C 391.500 47.612,391.566 48.000,391.646 48.000 C 391.780 48.000,391.703 46.508,391.561 46.347 C 391.528 46.309,391.500 46.665,391.500 47.139 M387.705 53.000 C 387.820 53.183,387.971 53.333,388.042 53.333 C 388.112 53.333,388.076 53.183,387.961 53.000 C 387.847 52.817,387.696 52.667,387.625 52.667 C 387.555 52.667,387.591 52.817,387.705 53.000 M390.964 53.956 C 391.448 53.990,392.198 53.990,392.631 53.956 C 393.063 53.921,392.667 53.894,391.750 53.894 C 390.833 53.895,390.480 53.923,390.964 53.956 " stroke="none" fill="#6c8ca4" fill-rule="evenodd"></path><path id="path4" d="M322.401 34.526 C 322.332 34.637,322.355 34.673,322.455 34.611 C 322.671 34.477,323.043 34.897,322.874 35.084 C 322.806 35.159,322.849 35.163,322.969 35.094 C 323.144 34.993,323.130 34.902,322.902 34.650 C 322.565 34.278,322.555 34.276,322.401 34.526 M385.812 34.615 C 385.686 34.770,385.671 34.845,385.777 34.781 C 385.884 34.717,386.002 34.755,386.039 34.866 C 386.091 35.022,386.133 35.022,386.229 34.867 C 386.297 34.757,386.269 34.667,386.167 34.667 C 386.064 34.667,386.027 34.592,386.083 34.500 C 386.251 34.229,386.060 34.310,385.812 34.615 M395.625 34.520 C 395.923 34.606,396.167 34.758,396.167 34.857 C 396.167 34.965,396.329 34.932,396.568 34.776 C 396.938 34.533,396.965 34.535,396.922 34.798 C 396.897 34.955,396.948 35.174,397.036 35.284 C 397.124 35.395,397.152 35.555,397.100 35.640 C 397.047 35.726,397.208 35.834,397.457 35.882 C 397.850 35.957,397.873 35.941,397.628 35.762 C 397.413 35.605,397.392 35.508,397.539 35.361 C 397.685 35.215,397.654 35.105,397.408 34.905 C 397.229 34.760,397.177 34.689,397.292 34.747 C 397.648 34.928,397.520 34.689,397.156 34.494 C 396.901 34.358,396.750 34.361,396.573 34.509 C 396.403 34.650,396.333 34.653,396.333 34.520 C 396.333 34.413,396.068 34.340,395.708 34.348 L 395.083 34.363 395.625 34.520 M256.040 36.372 C 256.059 36.637,256.134 36.766,256.220 36.680 C 256.306 36.594,256.293 36.403,256.188 36.224 C 256.030 35.954,256.012 35.972,256.040 36.372 M265.582 75.333 C 265.582 96.279,265.601 104.848,265.625 94.375 C 265.649 83.902,265.649 66.765,265.625 56.292 C 265.601 45.819,265.582 54.387,265.582 75.333 M382.832 37.501 C 382.677 37.597,382.682 37.648,382.856 37.717 C 383.017 37.781,383.023 37.811,382.875 37.820 C 382.636 37.835,382.586 38.167,382.822 38.167 C 382.908 38.167,383.025 38.016,383.084 37.831 C 383.143 37.646,383.245 37.529,383.312 37.570 C 383.378 37.611,383.531 37.584,383.651 37.510 C 383.798 37.419,383.733 37.375,383.452 37.375 C 383.223 37.375,382.944 37.432,382.832 37.501 M390.544 37.453 C 390.797 37.491,391.172 37.490,391.377 37.451 C 391.582 37.411,391.375 37.380,390.917 37.381 C 390.458 37.382,390.291 37.415,390.544 37.453 M399.167 37.583 C 399.167 37.739,399.324 37.833,399.583 37.833 C 399.843 37.833,400.000 37.739,400.000 37.583 C 400.000 37.428,399.843 37.333,399.583 37.333 C 399.324 37.333,399.167 37.428,399.167 37.583 M382.333 39.167 C 382.167 39.274,382.153 39.329,382.292 39.331 C 382.406 39.332,382.500 39.421,382.500 39.528 C 382.500 39.635,382.451 39.673,382.390 39.613 C 382.330 39.552,382.178 39.588,382.053 39.692 C 381.928 39.796,381.773 39.829,381.709 39.765 C 381.645 39.701,381.703 39.579,381.838 39.493 C 381.995 39.395,382.010 39.338,381.881 39.336 C 381.655 39.333,381.327 39.860,381.345 40.197 C 381.351 40.318,381.413 40.272,381.483 40.096 C 381.600 39.796,381.616 39.794,381.722 40.069 C 381.802 40.280,381.740 40.389,381.501 40.452 C 381.091 40.559,381.052 40.853,381.458 40.776 C 382.326 40.613,382.643 40.305,382.617 39.646 C 382.603 39.290,382.589 39.001,382.587 39.003 C 382.585 39.004,382.471 39.078,382.333 39.167 M386.917 39.667 C 386.860 39.758,386.912 39.834,387.032 39.836 C 387.182 39.838,387.192 39.876,387.064 39.961 C 386.768 40.156,386.629 40.791,386.852 40.928 C 386.965 40.998,387.008 40.981,386.951 40.889 C 386.896 40.799,386.959 40.517,387.092 40.261 C 387.427 39.615,387.273 39.091,386.917 39.667 M387.166 44.200 C 387.121 46.373,387.141 48.093,387.212 48.022 C 387.282 47.951,387.319 46.174,387.295 44.072 L 387.249 40.250 387.166 44.200 M386.444 41.111 C 386.383 41.172,386.333 41.316,386.333 41.430 C 386.333 41.686,386.874 41.627,386.963 41.360 C 387.004 41.237,386.922 41.207,386.737 41.278 C 386.538 41.354,386.484 41.328,386.566 41.195 C 386.697 40.983,386.623 40.932,386.444 41.111 M381.278 41.778 C 381.096 41.960,381.148 45.000,381.333 45.000 C 381.433 45.000,381.500 44.333,381.500 43.333 C 381.500 41.667,381.486 41.570,381.278 41.778 M396.538 42.696 C 396.221 43.012,396.296 43.201,396.688 43.077 C 396.948 42.994,397.007 43.020,396.912 43.175 C 396.827 43.311,396.849 43.343,396.974 43.266 C 397.080 43.201,397.167 43.187,397.167 43.235 C 397.167 43.283,396.965 43.428,396.718 43.558 L 396.270 43.793 396.885 43.771 C 397.223 43.760,397.500 43.689,397.500 43.615 C 397.500 43.541,397.570 43.524,397.657 43.577 C 397.743 43.630,397.802 43.530,397.789 43.355 C 397.774 43.153,397.679 43.070,397.528 43.128 C 397.397 43.178,397.167 43.055,397.016 42.855 C 396.800 42.568,396.699 42.534,396.538 42.696 M396.592 44.180 C 396.634 44.249,396.575 44.343,396.459 44.389 C 396.326 44.443,396.349 44.478,396.524 44.487 C 396.674 44.494,396.836 44.400,396.883 44.278 C 396.930 44.156,396.866 44.056,396.741 44.056 C 396.617 44.056,396.549 44.112,396.592 44.180 M377.500 44.677 C 377.500 44.774,377.569 44.811,377.652 44.759 C 377.736 44.707,377.843 44.759,377.889 44.874 C 377.940 45.000,377.979 44.968,377.987 44.792 C 377.994 44.631,377.887 44.500,377.750 44.500 C 377.613 44.500,377.500 44.579,377.500 44.677 M395.795 44.875 C 395.884 45.221,395.868 45.231,395.585 45.000 C 395.313 44.778,395.288 44.778,395.361 45.000 C 395.517 45.476,396.135 45.408,396.042 44.925 C 395.998 44.691,395.902 44.500,395.830 44.500 C 395.757 44.500,395.741 44.669,395.795 44.875 M385.503 45.298 C 385.500 45.627,385.545 45.654,385.833 45.500 C 386.142 45.335,386.237 45.391,386.186 45.710 C 386.175 45.780,386.316 45.743,386.499 45.628 C 386.683 45.514,386.833 45.358,386.833 45.283 C 386.833 45.208,386.750 45.199,386.648 45.262 C 386.546 45.325,386.396 45.273,386.315 45.146 C 386.191 44.954,386.140 44.957,386.000 45.167 C 385.852 45.389,385.815 45.389,385.669 45.167 C 385.536 44.964,385.505 44.989,385.503 45.298 M381.167 45.333 C 381.167 45.425,381.257 45.500,381.367 45.500 C 381.522 45.500,381.522 45.544,381.367 45.700 C 381.119 45.947,381.108 46.167,381.343 46.167 C 381.440 46.167,381.477 46.097,381.424 46.012 C 381.371 45.926,381.401 45.811,381.490 45.756 C 381.579 45.701,381.610 45.546,381.558 45.411 C 381.452 45.135,381.167 45.078,381.167 45.333 M386.576 45.844 C 386.516 45.942,386.507 46.062,386.556 46.111 C 386.675 46.230,387.000 46.020,387.000 45.823 C 387.000 45.611,386.712 45.625,386.576 45.844 M381.522 46.268 C 381.296 46.764,381.277 47.014,381.491 46.676 C 381.612 46.485,381.727 46.474,382.055 46.623 C 382.470 46.812,382.570 47.290,382.250 47.554 C 382.150 47.637,382.182 47.665,382.329 47.625 C 382.482 47.584,382.597 47.297,382.633 46.863 C 382.679 46.310,382.642 46.187,382.450 46.260 C 382.318 46.311,382.097 46.240,381.960 46.103 C 381.739 45.882,381.690 45.900,381.522 46.268 M391.409 47.365 C 391.424 47.887,391.383 48.281,391.317 48.240 C 391.251 48.199,391.241 48.333,391.295 48.537 C 391.348 48.741,391.422 48.816,391.460 48.704 C 391.497 48.592,391.642 48.500,391.782 48.500 C 391.921 48.500,392.000 48.594,391.955 48.709 C 391.855 48.971,392.188 49.298,392.462 49.207 C 392.732 49.117,392.728 49.447,392.458 49.556 C 392.299 49.621,392.301 49.643,392.469 49.654 C 392.776 49.672,393.333 49.354,393.333 49.161 C 393.333 49.072,393.195 49.000,393.026 49.000 C 392.654 49.000,392.167 48.496,392.167 48.112 C 392.167 47.959,392.087 47.833,391.990 47.833 C 391.893 47.833,391.859 47.907,391.915 47.998 C 391.973 48.091,391.909 48.121,391.767 48.067 C 391.609 48.006,391.491 47.683,391.449 47.194 C 391.396 46.586,391.387 46.623,391.409 47.365 M218.458 46.610 C 218.573 46.657,218.668 46.819,218.669 46.972 C 218.671 47.209,218.695 47.213,218.827 47.004 C 218.984 46.756,218.764 46.494,218.417 46.516 C 218.325 46.522,218.344 46.564,218.458 46.610 M288.410 46.678 C 288.349 46.776,288.340 46.896,288.389 46.944 C 288.508 47.064,288.833 46.853,288.833 46.657 C 288.833 46.444,288.546 46.458,288.410 46.678 M381.833 46.906 C 382.060 47.199,382.057 47.219,381.800 47.123 C 381.598 47.047,381.543 47.086,381.610 47.258 C 381.728 47.567,381.938 47.568,382.056 47.262 C 382.106 47.131,382.020 46.925,381.865 46.804 C 381.607 46.602,381.604 46.610,381.833 46.906 M390.833 48.750 C 390.719 48.887,390.518 49.000,390.386 49.000 C 390.246 49.000,390.197 49.081,390.268 49.195 C 390.348 49.325,390.298 49.355,390.116 49.286 C 389.966 49.228,389.793 49.265,389.730 49.366 C 389.660 49.478,389.691 49.505,389.808 49.433 C 389.913 49.367,390.000 49.386,390.000 49.475 C 390.000 49.563,390.150 49.596,390.333 49.548 C 390.517 49.500,390.667 49.348,390.667 49.210 C 390.667 49.006,390.713 48.998,390.917 49.167 C 391.128 49.342,391.167 49.307,391.167 48.937 C 391.167 48.433,391.119 48.406,390.833 48.750 M382.787 49.619 C 382.849 49.781,382.921 49.819,382.958 49.709 C 382.993 49.604,383.129 49.560,383.261 49.611 C 383.392 49.661,383.500 49.636,383.500 49.554 C 383.500 49.473,383.315 49.391,383.089 49.372 C 382.767 49.345,382.702 49.398,382.787 49.619 M383.884 49.453 C 383.775 49.491,383.732 49.642,383.788 49.790 C 383.867 49.996,383.821 50.031,383.589 49.942 C 383.335 49.844,383.320 49.866,383.493 50.075 C 383.675 50.294,383.729 50.295,383.945 50.078 C 384.226 49.797,384.183 49.350,383.884 49.453 M391.208 49.615 C 391.369 49.657,391.631 49.657,391.792 49.615 C 391.952 49.573,391.821 49.539,391.500 49.539 C 391.179 49.539,391.048 49.573,391.208 49.615 M383.872 50.419 C 383.696 50.619,383.729 50.676,384.069 50.761 C 384.302 50.820,384.444 50.953,384.398 51.071 C 384.355 51.185,384.478 51.460,384.673 51.681 L 385.027 52.083 384.763 51.671 C 384.433 51.155,384.429 50.983,384.750 51.106 C 384.887 51.159,385.000 51.119,385.000 51.018 C 385.000 50.916,384.944 50.845,384.875 50.859 C 384.806 50.874,384.563 50.803,384.333 50.703 C 384.104 50.603,384.010 50.516,384.125 50.511 C 384.240 50.505,384.333 50.425,384.333 50.333 C 384.333 50.098,384.120 50.137,383.872 50.419 M385.167 51.204 C 385.167 51.412,385.096 51.477,384.958 51.395 C 384.817 51.309,384.823 51.360,384.979 51.551 C 385.226 51.857,385.418 51.938,385.250 51.667 C 385.193 51.575,385.264 51.500,385.407 51.500 C 385.550 51.500,385.667 51.362,385.667 51.194 C 385.667 51.026,385.554 50.889,385.417 50.889 C 385.279 50.889,385.167 51.031,385.167 51.204 M385.382 51.909 C 385.218 52.095,385.269 52.170,385.656 52.305 C 386.134 52.471,386.293 52.217,385.923 51.880 C 385.844 51.808,385.834 51.844,385.900 51.958 C 385.973 52.086,385.922 52.167,385.765 52.167 C 385.607 52.167,385.547 52.072,385.606 51.917 C 385.724 51.609,385.647 51.607,385.382 51.909 M396.990 52.186 C 396.843 52.460,396.848 52.523,397.011 52.469 C 397.126 52.430,397.240 52.271,397.262 52.116 C 397.318 51.734,397.218 51.760,396.990 52.186 M387.812 52.803 C 388.020 53.095,388.113 53.333,388.020 53.333 C 387.926 53.333,387.773 53.202,387.680 53.042 C 387.587 52.881,387.508 52.832,387.505 52.933 C 387.500 53.116,388.026 53.667,388.207 53.667 C 388.333 53.667,388.277 53.308,388.108 53.038 C 387.863 52.646,388.387 52.902,388.798 53.375 C 389.185 53.821,389.503 53.854,389.497 53.448 C 389.496 53.329,389.430 53.350,389.333 53.500 C 389.176 53.743,389.156 53.726,389.097 53.292 C 389.081 53.177,388.987 53.099,388.887 53.118 C 388.787 53.138,388.716 53.025,388.728 52.868 C 388.743 52.671,388.621 52.581,388.329 52.575 C 388.098 52.570,387.802 52.500,387.671 52.420 C 387.541 52.339,387.604 52.512,387.812 52.803 M394.561 52.582 C 394.508 52.719,394.398 52.790,394.316 52.739 C 394.234 52.688,394.167 52.759,394.167 52.897 C 394.167 53.034,394.253 53.201,394.359 53.266 C 394.478 53.340,394.506 53.312,394.433 53.192 C 394.367 53.087,394.384 53.000,394.471 53.000 C 394.557 53.000,394.667 52.850,394.715 52.667 C 394.816 52.279,394.701 52.216,394.561 52.582 M393.655 53.458 C 393.499 53.708,393.255 53.743,391.945 53.698 C 391.104 53.670,390.252 53.707,390.051 53.781 C 389.829 53.864,390.467 53.917,391.676 53.917 C 392.771 53.917,393.666 53.856,393.667 53.782 C 393.667 53.708,393.726 53.684,393.799 53.729 C 393.871 53.774,393.942 53.665,393.955 53.488 C 393.985 53.089,393.890 53.080,393.655 53.458 M350.905 53.519 C 350.842 53.621,350.894 53.769,351.020 53.849 C 351.323 54.041,351.458 54.036,351.586 53.829 C 351.644 53.735,351.630 53.669,351.554 53.682 C 351.217 53.741,350.989 53.653,351.083 53.500 C 351.140 53.408,351.149 53.333,351.103 53.333 C 351.057 53.333,350.968 53.417,350.905 53.519 M189.708 53.953 C 189.960 53.991,190.373 53.991,190.625 53.953 C 190.877 53.915,190.671 53.883,190.167 53.883 C 189.662 53.883,189.456 53.915,189.708 53.953 M353.751 54.665 C 353.695 54.756,353.726 54.963,353.820 55.124 C 353.965 55.371,353.987 55.345,353.959 54.958 C 353.924 54.454,353.901 54.422,353.751 54.665 M298.365 55.093 C 298.245 55.229,298.057 55.291,297.948 55.229 C 297.804 55.148,297.799 55.171,297.930 55.314 C 298.144 55.547,298.603 55.407,298.732 55.070 C 298.850 54.764,298.645 54.777,298.365 55.093 M197.180 57.570 C 197.156 57.848,197.693 58.313,197.932 58.221 C 198.061 58.171,198.167 58.214,198.167 58.316 C 198.167 58.417,198.229 58.500,198.306 58.500 C 198.382 58.500,198.444 58.391,198.444 58.257 C 198.444 58.124,198.382 58.053,198.306 58.101 C 198.229 58.148,198.167 58.098,198.167 57.989 C 198.167 57.843,198.103 57.845,197.917 58.000 C 197.685 58.192,197.593 58.115,197.651 57.779 C 197.664 57.704,197.604 57.685,197.518 57.739 C 197.432 57.792,197.324 57.741,197.277 57.626 C 197.231 57.511,197.187 57.486,197.180 57.570 M177.013 58.708 C 177.006 58.869,176.869 59.001,176.708 59.003 C 176.462 59.005,176.455 59.029,176.664 59.162 C 176.943 59.338,177.249 58.965,177.108 58.619 C 177.062 58.505,177.021 58.545,177.013 58.708 M356.667 62.250 C 356.667 62.793,356.909 62.793,356.941 62.250 C 356.954 62.021,356.898 61.833,356.816 61.833 C 356.734 61.833,356.667 62.021,356.667 62.250 M225.667 87.639 C 225.667 87.746,225.550 87.833,225.407 87.833 C 225.264 87.833,225.193 87.908,225.250 88.000 C 225.307 88.092,225.416 88.167,225.492 88.167 C 225.663 88.167,225.875 87.652,225.754 87.532 C 225.706 87.484,225.667 87.532,225.667 87.639 M224.059 92.627 C 224.120 92.726,224.048 92.929,223.898 93.078 C 223.749 93.227,223.664 93.387,223.710 93.433 C 223.813 93.535,224.333 93.032,224.333 92.831 C 224.333 92.752,224.247 92.633,224.141 92.567 C 224.027 92.497,223.994 92.521,224.059 92.627 M217.169 105.208 C 217.168 105.369,217.036 105.506,216.875 105.513 C 216.711 105.521,216.672 105.562,216.785 105.608 C 217.131 105.749,217.505 105.443,217.328 105.164 C 217.196 104.955,217.171 104.962,217.169 105.208 M183.578 114.342 C 183.420 114.598,183.637 114.763,183.851 114.549 C 183.970 114.430,183.973 114.336,183.859 114.266 C 183.766 114.208,183.640 114.242,183.578 114.342 M245.364 142.740 C 245.427 142.810,245.408 143.066,245.322 143.309 C 245.174 143.724,245.180 143.731,245.416 143.426 C 245.721 143.033,245.730 142.889,245.458 142.733 C 245.344 142.667,245.301 142.670,245.364 142.740 " stroke="none" fill="#c0a89c" fill-rule="evenodd"></path></g></svg>